<?xml version="1.0" encoding="utf-8"?>
<!-- Generator: Adobe Illustrator 21.1.0, SVG Export Plug-In . SVG Version: 6.00 Build 0)  -->
<svg version="1.1" id="Lag_1" xmlns="http://www.w3.org/2000/svg" xmlns:xlink="http://www.w3.org/1999/xlink" x="0px" y="0px"
	 viewBox="0 0 683 237" style="enable-background:new 0 0 683 237;" xml:space="preserve">
<style type="text/css">
	.st0{fill:#FFFFFF;}
	.st1{fill:#EDDB8D;}
	.st2{fill:#2BBCD5;}
	.st3{fill:#2D469C;}
	.st4{fill:#4E51A2;}
	.st5{fill:#BFDA83;}
	.st6{fill:#EE3B31;}
	.st7{fill:#42B549;}
	.st8{fill:#D33B94;}
	.st9{fill:#4FA346;}
	.st10{fill:#224FA1;}
	.st11{fill:#6EBD44;}
	.st12{fill:#8C8E32;}
	.st13{fill:#487A6A;}
	.st14{fill:#113E1F;}
	.st15{fill:#EBE739;}
	.st16{fill:#4D464F;}
	.st17{fill:#33B780;}
	.st18{fill:#456FB5;}
	.st19{fill:#3053A4;}
	.st20{fill:#ED2E4A;}
	.st21{fill:#DB6633;}
	.st22{fill:#BFC633;}
	.st23{fill:#4E2C7B;}
	.st24{fill:#158D48;}
	.st25{fill:#87ABB1;}
	.st26{fill:#3B5FAB;}
	.st27{fill:#95C83D;}
	.st28{fill:#3560AB;}
	.st29{fill:#72BE44;}
	.st30{fill:#227074;}
	.st31{fill:#F5DE30;}
	.st32{fill:#76B4CF;}
	.st33{fill:#7980BE;}
	.st34{fill:#A65FA5;}
	.st35{fill:#DF6E61;}
	.st36{fill:#941839;}
	.st37{fill:#81C56F;}
	.st38{fill:#BE4427;}
	.st39{fill:#4257A6;}
	.st40{fill:#C85827;}
	.st41{fill:#ACA335;}
	.st42{fill:#FCE42F;}
	.st43{fill:#7797C2;}
	.st44{fill:#4B2E88;}
	.st45{fill:#69CADF;}
	.st46{fill:#5A61A7;}
	.st47{fill:#53C0AF;}
	.st48{fill:#5986BA;}
	.st49{fill:#746AAF;}
	.st50{fill:#577E45;}
	.st51{fill:#32B34A;}
	.st52{fill:#58C2B3;}
	.st53{fill:#24568A;}
	.st54{fill:#C483B8;}
	.st55{fill:#86C774;}
	.st56{fill:#8565AB;}
	.st57{fill:#885FA7;}
	.st58{fill:#41986E;}
	.st59{fill:#601025;}
	.st60{fill:#6D9794;}
	.st61{fill:#61BF85;}
	.st62{fill:#7E7F86;}
	.st63{fill:#2DB461;}
	.st64{fill:#8599B0;}
	.st65{fill:#888130;}
	.st66{fill:#2FA559;}
	.st67{fill:#E18E74;}
	.st68{fill:#3D5265;}
	.st69{fill:#2B5EA5;}
	.st70{fill:#6EB59F;}
	.st71{fill:#33733F;}
	.st72{fill:#223D45;}
	.st73{fill:#C4AABE;}
	.st74{fill:#402F88;}
	.st75{fill:#8B8185;}
	.st76{fill:#F7DEA0;}
	.st77{fill:#474A1C;}
	.st78{fill:#5DBD7B;}
	.st79{fill:#5A85C3;}
	.st80{fill:#928EA8;}
	.st81{fill:#ED282A;}
	.st82{fill:#5B3895;}
	.st83{fill:#3BB66C;}
	.st84{fill:#D48D32;}
	.st85{fill:#000F28;}
	.st86{fill:#47769C;}
	.st87{fill:#42C2D6;}
	.st88{fill:#83479B;}
	.st89{fill:#5BB947;}
	.st90{fill:#6C3123;}
	.st91{fill:#293474;}
	.st92{fill:#A6CE42;}
	.st93{fill:#74C27E;}
	.st94{fill:#158A80;}
	.st95{fill:#63BB46;}
	.st96{fill:#375C2B;}
	.st97{fill:#4159A7;}
	.st98{fill:#6F3995;}
	.st99{fill:#DCA9CD;}
	.st100{fill:#6D9077;}
	.st101{fill:#6FBD44;}
	.st102{fill:#1E2719;}
	.st103{fill:#2EB468;}
	.st104{fill:#5DBB67;}
	.st105{fill:#4A1C11;}
	.st106{fill:#69BE68;}
	.st107{fill:#2AB99D;}
	.st108{fill:#49B649;}
	.st109{fill:#7D277E;}
	.st110{fill:#797CBA;}
	.st111{fill:#4CBCB9;}
	.st112{fill:#C370AC;}
	.st113{fill:#4D2112;}
	.st114{fill:#D3ABD0;}
	.st115{fill:#A88452;}
	.st116{fill:#7A93CB;}
	.st117{fill:#8C7453;}
	.st118{fill:#C08278;}
	.st119{fill:#7E6468;}
	.st120{fill:#65C7CA;}
	.st121{fill:#A7DCDE;}
	.st122{fill:#C8D288;}
	.st123{fill:#ED332A;}
	.st124{fill:#68C4AA;}
	.st125{fill:#C674A5;}
	.st126{fill:#5C479C;}
	.st127{fill:#6EC8C0;}
	.st128{fill:#AF499A;}
	.st129{fill:#E09871;}
	.st130{fill:#37B34A;}
	.st131{fill:#3A5AA7;}
	.st132{fill:#2B50A2;}
	.st133{fill:#ECE738;}
	.st134{fill:#7CC142;}
	.st135{fill:#28B897;}
	.st136{fill:#321C33;}
	.st137{fill:#ED2A2D;}
	.st138{fill:#3258A7;}
	.st139{fill:#ACD268;}
	.st140{fill:#5EBA47;}
	.st141{fill:#8064AA;}
	.st142{fill:#C84396;}
	.st143{fill:#8052A0;}
	.st144{fill:#49215D;}
	.st145{fill:#EF4D51;}
	.st146{fill:#83C562;}
	.st147{fill:#E3EBA6;}
	.st148{fill:#824D9D;}
	.st149{fill:#58C7DD;}
	.st150{fill:#D7E15A;}
	.st151{fill:#B78558;}
	.st152{fill:#8A669D;}
	.st153{fill:#4888C7;}
	.st154{fill:#6E4399;}
	.st155{fill:#A18127;}
	.st156{fill:#DE4B9A;}
	.st157{fill:#29A097;}
	.st158{fill:#38395F;}
	.st159{fill:#7D495B;}
	.st160{fill:#B7D778;}
	.st161{fill:#299ED4;}
	.st162{fill:#DE1B49;}
	.st163{fill:#5FBF92;}
	.st164{fill:#91B86C;}
	.st165{fill:#B97A29;}
	.st166{fill:#ED2D76;}
	.st167{fill:#25AA4A;}
	.st168{fill:#777747;}
	.st169{fill:#3854A4;}
	.st170{fill:#37C4EC;}
	.st171{fill:#9ACC72;}
	.st172{fill:#3269B2;}
	.st173{fill:#BF202E;}
	.st174{fill:#4652A2;}
	.st175{fill:#4DBB8D;}
	.st176{fill:#6ABE65;}
	.st177{fill:#714B92;}
	.st178{fill:#60C19E;}
	.st179{fill:#9BD2AD;}
	.st180{fill:#8A5F63;}
	.st181{fill:#5489B0;}
	.st182{fill:#D0B0D3;}
	.st183{fill:#D41B50;}
	.st184{fill:#199BA4;}
	.st185{fill:#7F525A;}
	.st186{fill:#8C6F23;}
	.st187{fill:#4A4C9F;}
	.st188{fill:#65BE76;}
	.st189{fill:#4653A3;}
	.st190{fill:#AB4624;}
	.st191{fill:#8897AD;}
	.st192{fill:#44B65F;}
	.st193{fill:#BA1777;}
	.st194{fill:#639BB7;}
	.st195{fill:#417668;}
	.st196{fill:#B1D240;}
	.st197{fill:#89519F;}
	.st198{fill:#564EA0;}
	.st199{fill:#3C469C;}
</style>
<g>
	<path class="st0" d="M336.7,30.3v138.4h-7.4c-4.7,0-6.3-3.6-6.3-7.8V30.8c0-7.6-9.2-7.2-9.2,0.2v34.7h8.7l-8.7,14.1v89H306
		c-4.7,0-5.8-3.6-5.8-7.8V31c0-4.9,1.6-18.8,18.1-18.8C333.5,12.2,336.7,22.5,336.7,30.3"/>
	<path class="st0" d="M368,104.6c0-7.4-1.6-7.8-3.8-9.6l-5.6-3.8v59.7c0,5.8,9.4,5.8,9.4,0V104.6z M381.4,150.9
		c0,7.8-2,17.9-18.3,17.9c-15.7,0-18.1-11.6-18.1-18.1V40.4c6.5,0,13.6,0,13.6,12.5v16.3c0,6,4.9,7.8,12.5,13.4
		c7.8,5.8,10.3,8.7,10.3,14.5V150.9z"/>
	<path class="st0" d="M426.1,88.7v1.8c0,11.6-11,11.9-13.4,11.9V88.7c0-5.8-9.4-5.8-9.4,0v72c0,4.5-1.1,8.1-6,8.1h-7.6V88.9
		c0-6.5,2.5-18.1,18.1-18.1C424.1,70.8,426.1,80.9,426.1,88.7"/>
	<path class="st0" d="M444.2,150.9c0,5.8,9.4,5.8,9.4,0v-30.2l-5.4,3.8c-2.5,1.8-4,2.2-4,9.6V150.9z M467,150.7
		c0,6.5-2.2,18.1-17.9,18.1c-16.3,0-18.3-10.1-18.3-17.9v-24.4c0-5.6,2.5-8.9,10.3-14.3c8.1-5.6,12.5-7.4,12.5-13.4v-9.2
		c0-7.4-9.4-7.6-9.4,0v6c0,8-13.4,8.5-13.4,8.5V89.6c0,0,0-18.8,18.1-18.8c12.5,0,18.1,6.7,18.1,18.8V150.7z"/>
	<path class="st0" d="M512.2,168.8h-7.4c-4.7,0-6-3.6-6-8.1v-56.1c0-7.4-1.6-7.8-3.8-9.6l-5.6-3.8v77.6h-7.6c-4.7,0-6-3.6-6-8.1
		V31.2c7.4,0,13.6-0.4,13.6,13.2v24.8c0,6,4.7,7.8,12.5,13.4c8.1,5.8,10.3,8.7,10.3,14.5"/>
	<path class="st0" d="M533.7,150.9c0,5.8,9.4,5.8,9.4,0v-30.2l-5.4,3.8c-2.5,1.8-4,2.2-4,9.6V150.9z M556.5,150.7
		c0,6.5-2.2,18.1-17.9,18.1c-16.3,0-18.3-10.1-18.3-17.9v-24.4c0-5.6,2.5-8.9,10.3-14.3c8.1-5.6,12.5-7.4,12.5-13.4v-9.2
		c0-7.4-9.4-7.6-9.4,0v6c0,8-13.4,8.5-13.4,8.5V89.6c0,0,0-18.8,18.1-18.8c12.5,0,18.1,6.7,18.1,18.8V150.7z"/>
	<path class="st0" d="M624.9,89.6v79.2h-7.6c-4.7,0-6-3.6-6-8.1V89.8c0-6.7-9.4-6.7-9.4,0v78.9h-7.6c-4.7,0-6-3.6-6-8.1V89.8
		c0-6.7-9.4-6.7-9.4,0v78.9h-7.6c-4.9,0-6-3.6-6-8.1V89.8c0-6.7,1.6-19,18.3-19c5.1,0,8.9,1.3,11.6,3.1c2.7-1.8,6.5-3.1,11.4-3.1
		C623.1,70.8,624.9,83.1,624.9,89.6"/>
	<path class="st0" d="M651.8,12c18.1,0,18.1,18.6,18.1,18.6v44.7c0,0-13.4,0.2-13.4-8.7V30.8c0-7.4-9.2-7.4-9.2,0v39.6
		c0,6,4,8.5,12.3,13.4c8.3,4.7,10.3,8.7,10.3,14.1v53.2c0,7.8-2,17.7-18.1,17.7c-15.7,0-18.1-11.4-18.1-17.9v-49
		c0,0,13.6,0,13.6,8.5v40.7c0,5.8,9.2,5.8,9.2,0v-45.8c0-7.2-1.6-7.6-3.8-9.4l-13.4-8.9c-6.5-4.5-5.6-14.3-5.6-14.3V30.8
		C633.6,30.8,633.9,12,651.8,12"/>
	<path class="st0" d="M669.9,185.5h-5.5V206c0,0.7,0.1,1.6,0.4,2.7l-9-23.2h-4.9v37.6h5.5v-20.9c0-0.7-0.1-1.6-0.4-2.7l9,23.6h4.9
		V185.5z M641.2,206.1c1.9,0,3.1-0.1,3.6-0.4c1.1-0.5,1.6-1.5,1.6-3.1V189c0-2.3-1.1-3.5-3.4-3.5h-14.9v37.6h5.6v-32.7h7.1v11.9
		h-5.5v3.4l6.2,17.5h5.9L641.2,206.1z M610.3,190.4h7.7v27.9h-7.7V190.4z M623.7,189c0-1.4-0.4-2.4-1.3-2.9l1.1-3.9v-0.3h-5.7
		l-1,3.7h-8.6c-2.2,0-3.3,1.2-3.3,3.5v30.7c0,1.5,0.5,2.5,1.5,3l-1.1,3.8v0.3h5.7l1-3.7h8.4c2.3,0,3.4-1.1,3.4-3.4V189z
		 M587.5,218.4v-12.5h4.4l2.8,1.8v10.7H587.5z M591.8,201.3h-4.3v-11h7v9.1L591.8,201.3z M600.3,208.5c0-1.3-0.4-2.3-1.3-3.1
		c-0.1-0.1-1.1-0.8-3-1.9c1.8-1.1,2.8-1.8,2.9-1.8c0.8-0.7,1.2-1.7,1.2-3V189c0-2.3-1.1-3.5-3.3-3.5h-14.9v37.6h15
		c2.3,0,3.4-1.1,3.4-3.4V208.5z M567.9,218.1h-10v-11.8h8.5v-4.9h-8.5v-11h9.8v-5h-15.4v37.6h15.6V218.1z M549.5,185.5h-18v5h6.2
		v32.6h5.6v-32.6h6.2V185.5z M528.6,203h-9.8v4.8h4.2v10.5h-7.3v-27.9h7.3v6.7h5.6v-8c0-2.3-1.1-3.5-3.4-3.5h-11.7
		c-2.3,0-3.4,1.2-3.4,3.5v30.7c0,2.3,1.1,3.4,3.3,3.4h11.8c2.3,0,3.4-1.1,3.4-3.4V203z M493.9,211.2l2.8-17l2.7,17H493.9z
		 M499.7,185.5h-5.9l-7.3,37.5v0.1h5.5l1.1-7.1h7l1.1,7.1h5.6L499.7,185.5z M478.2,206.1c1.9,0,3.1-0.1,3.6-0.4
		c1.1-0.5,1.6-1.5,1.6-3.1V189c0-2.3-1.1-3.5-3.4-3.5h-14.9v37.6h5.6v-32.7h7.1v11.9h-5.5v3.4l6.2,17.5h5.9L478.2,206.1z M448,218.4
		v-12.5h4.4l2.8,1.8v10.7H448z M452.3,201.3H448v-11h7v9.1L452.3,201.3z M460.8,208.5c0-1.3-0.4-2.3-1.3-3.1c-0.1-0.1-1.1-0.8-3-1.9
		c1.8-1.1,2.8-1.8,2.9-1.8c0.8-0.7,1.2-1.7,1.2-3V189c0-2.3-1.1-3.5-3.3-3.5h-14.9v37.6h15c2.3,0,3.4-1.1,3.4-3.4V208.5z
		 M437.8,185.5h-5.5V206c0,0.7,0.1,1.6,0.4,2.7l-9-23.2h-4.9v37.6h5.5v-20.9c0-0.7-0.1-1.6-0.4-2.7l9,23.6h4.9V185.5z M415,218.1
		h-10v-11.8h8.5v-4.9H405v-11h9.8v-5h-15.4v37.6H415V218.1z M394.9,185.5h-5.3l-5.9,20.8c-0.1,0.7-0.1,1.3-0.1,1.7
		c0-0.9-0.1-1.5-0.1-1.7l-5.9-20.8h-5.3v37.6h5.4v-18.5c0-0.9-0.1-2.3-0.3-4.1l4.9,19.2h2.9l4.9-19.2c-0.2,1.7-0.3,3.1-0.3,4.1v18.5
		h5.4V185.5z M367.7,185.5h-5.3l-5.9,20.8c-0.1,0.7-0.1,1.3-0.1,1.7c0-0.9-0.1-1.5-0.1-1.7l-5.9-20.8H345v37.6h5.4v-18.5
		c0-0.9-0.1-2.3-0.3-4.1l4.9,19.2h2.9l4.9-19.2c-0.2,1.7-0.3,3.1-0.3,4.1v18.5h5.4V185.5z M328.8,211.2l2.8-17l2.7,17H328.8z
		 M334.6,185.5h-5.9l-7.3,37.5v0.1h5.5l1.1-7.1h7l1.1,7.1h5.6L334.6,185.5z M318.3,210.7c0-1.3-0.4-2.3-1.2-3l-11.3-10.6v-6.8h6.9
		v7.1h5.6V189c0-2.3-1.1-3.4-3.4-3.4h-11.3c-2.3,0-3.4,1.2-3.4,3.5v8.4c0,1.2,0.4,2.2,1.2,3l11.3,10.7v7.4h-6.9v-7.7h-5.6v9
		c0,2.3,1.1,3.4,3.4,3.4h11.3c2.3,0,3.4-1.1,3.4-3.4V210.7z"/>
	<polygon class="st1" points="85.3,61.1 85.3,61 85.4,61.1 	"/>
	<g>
		<path class="st2" d="M85.3,61.1C85.3,61.1,85.3,61.1,85.3,61.1L85.3,61.1L85.3,61.1z"/>
		<path class="st3" d="M85.3,61.1C85.3,61.2,85.3,61.2,85.3,61.1L85.3,61.1L85.3,61.1z"/>
		<path class="st4" d="M85.3,61C85.3,61,85.3,61,85.3,61L85.3,61L85.3,61z"/>
		<path class="st5" d="M90.5,87c0.4,0.8,0.8,1.7,1.3,2.5h6.1L90.5,87z"/>
		<path class="st6" d="M91.8,89.5c1.2,2.1,2.4,4.1,3.9,6l2.2-6H91.8z"/>
		<path class="st7" d="M85.4,61.1l0,0.2c0,0.8-0.1,1.5-0.1,2.3c0,5.8,0.9,11.4,2.6,16.7l14.3-7.8L85.4,61.1z"/>
		<path class="st8" d="M102.1,72.4l-14.3,7.8c0.8,2.3,1.7,4.6,2.7,6.8l7.4,2.5L102.1,72.4z"/>
		<path class="st9" d="M102.1,49.7L98.3,29c-0.7,0.8-1.4,1.6-2,2.5L85.4,61.1L102.1,49.7z"/>
		<path class="st10" d="M96.2,31.5C89.9,39.7,85.9,49.9,85.3,61l0,0L96.2,31.5z"/>
		<path class="st11" d="M106.3,44l-7.6-15.5c-0.1,0.2-0.3,0.3-0.4,0.5l3.8,20.7L106.3,44z"/>
	</g>
	<polygon class="st12" points="85.4,61.1 102.1,49.7 102.1,72.4 	"/>
	<g>
		<path class="st13" d="M110.5,18.6c-0.6,0.4-1.1,0.7-1.7,1.1l1.7,1.5V18.6z"/>
	</g>
	<polygon class="st14" points="102.1,72.4 110.5,66.7 110.5,72.4 	"/>
	<g>
		<path class="st15" d="M108.7,19.7c-2.4,1.6-4.6,3.4-6.7,5.4l8.4-3.8L108.7,19.7z"/>
	</g>
	<polygon class="st16" points="102.1,49.7 110.5,66.7 102.1,72.4 	"/>
	<g>
		<path class="st17" d="M95.7,95.5c2.2,2.9,4.7,5.7,7.4,8.1l-5.2-14.1L95.7,95.5z"/>
	</g>
	<polygon class="st18" points="102.1,72.4 110.5,72.4 97.9,89.5 	"/>
	<g>
		<path class="st19" d="M110.5,21.2l-8.4,3.8c-1.2,1.1-2.3,2.3-3.4,3.5l7.6,15.5L110.5,21.2z"/>
	</g>
	<polygon class="st20" points="118.8,55.4 118.8,61.1 110.5,66.7 	"/>
	<polygon class="st21" points="102.1,49.7 106.3,44 118.8,55.4 	"/>
	<polygon class="st22" points="102.1,49.7 118.8,55.4 110.5,66.7 	"/>
	<polygon class="st23" points="106.3,44 123,49.7 118.8,55.4 	"/>
	<polygon class="st24" points="106.3,44 123,32.6 123,49.7 	"/>
	<polygon class="st25" points="110.5,21.2 123,32.6 106.3,44 	"/>
	<polygon class="st26" points="110.5,72.4 110.5,66.7 123,72.4 	"/>
	<polygon class="st27" points="110.5,66.7 118.8,61.1 123,72.4 	"/>
	<g>
		<path class="st28" d="M97.9,89.5l5.2,14.1c1.2,1.1,2.5,2.1,3.8,3.1l3.6-34.2L97.9,89.5z"/>
	</g>
	<polygon class="st29" points="118.8,61.1 131.4,61.1 123,72.4 	"/>
	<polygon class="st30" points="123,72.4 131.4,61.1 127.2,72.4 	"/>
	<polygon class="st31" points="118.8,61.1 118.8,55.4 131.4,61.1 	"/>
	<polygon class="st32" points="118.8,55.4 123,49.7 131.4,61.1 	"/>
	<g>
		<path class="st33" d="M123,32.6l-8.9-16.1c-1.2,0.6-2.5,1.3-3.7,2.1v2.7L123,32.6z"/>
		<path class="st34" d="M110.5,72.4l-3.6,34.2c0.4,0.3,0.9,0.7,1.3,1L123,72.4H110.5z"/>
		<path class="st35" d="M135.6,15.6l-12.2-2.8c-3.2,1-6.3,2.2-9.2,3.7l8.9,16.1L135.6,15.6z"/>
		<path class="st36" d="M135.6,10.7c-4.2,0.2-8.3,1-12.2,2.1l12.2,2.8V10.7z"/>
	</g>
	<polygon class="st37" points="123,32.6 135.6,38.3 123,49.7 	"/>
	<polygon class="st38" points="127.2,72.4 131.4,61.1 139.7,72.4 	"/>
	<polygon class="st39" points="123,32.6 135.6,15.6 135.6,38.3 	"/>
	<polygon class="st40" points="123,49.7 135.6,38.3 131.4,61.1 	"/>
	<g>
		<path class="st41" d="M140.3,117.1c1.2,0,2.4-0.1,3.6-0.2v-4.6L140.3,117.1z"/>
		<path class="st42" d="M116.2,112.2c6.7,3.1,14.2,4.8,22,4.9c0.7,0,1.4,0,2.1,0l3.6-4.9H116.2z"/>
		<path class="st43" d="M123,72.4l-14.8,35.2c2.5,1.8,5.2,3.3,8,4.6h27.7L123,72.4z"/>
	</g>
	<polygon class="st44" points="123,72.4 127.2,72.4 143.9,112.2 	"/>
	<g>
		<path class="st45" d="M135.6,15.6l10-4.5c-2.2-0.3-4.4-0.4-6.6-0.5c-1.2,0-2.3,0-3.4,0.1V15.6z"/>
	</g>
	<polygon class="st46" points="127.2,72.4 139.7,72.4 143.9,112.2 	"/>
	<polygon class="st47" points="135.6,38.3 135.6,15.6 143.9,38.3 	"/>
	<polygon class="st48" points="135.6,38.3 143.9,38.3 131.4,61.1 	"/>
	<polygon class="st49" points="139.7,72.4 152.3,55.4 152.3,72.4 	"/>
	<polygon class="st50" points="131.4,61.1 152.3,55.4 139.7,72.4 	"/>
	<polygon class="st51" points="143.9,38.3 152.3,55.4 131.4,61.1 	"/>
	<polygon class="st52" points="143.9,38.3 152.3,44 152.3,55.4 	"/>
	<polygon class="st53" points="139.7,72.4 152.3,72.4 148.1,78.1 	"/>
	<polygon class="st54" points="148.1,78.1 152.3,72.4 152.3,78.1 	"/>
	<polygon class="st55" points="148.1,78.1 152.3,78.1 152.3,89.5 	"/>
	<polygon class="st56" points="139.7,72.4 152.3,89.5 143.9,112.2 	"/>
	<polygon class="st57" points="139.7,72.4 148.1,78.1 152.3,89.5 	"/>
	<g>
		<path class="st58" d="M143.9,116.9c1.9-0.2,3.8-0.5,5.6-0.8l-5.6-3.8V116.9z"/>
		<path class="st59" d="M143.9,38.3l4-26.9c-0.8-0.1-1.5-0.3-2.3-0.4l-10,4.5L143.9,38.3z"/>
	</g>
	<polygon class="st60" points="152.3,55.4 160.7,61.1 152.3,72.4 	"/>
	<g>
		<path class="st61" d="M143.9,112.2l5.6,3.8c0.9-0.2,1.9-0.4,2.8-0.7V89.5L143.9,112.2z"/>
	</g>
	<polygon class="st62" points="152.3,78.1 164.8,72.4 164.8,89.5 	"/>
	<polygon class="st63" points="152.3,72.4 164.8,72.4 152.3,78.1 	"/>
	<polygon class="st64" points="152.3,72.4 160.7,61.1 164.8,72.4 	"/>
	<polygon class="st65" points="160.7,61.1 164.8,66.7 164.8,72.4 	"/>
	<polygon class="st66" points="152.3,89.5 152.3,78.1 164.8,89.5 	"/>
	<g>
		<path class="st67" d="M164.8,38.3l-15.7-26.7c-0.3-0.1-0.5-0.1-0.8-0.2l4,32.6L164.8,38.3z"/>
	</g>
	<polygon class="st68" points="152.3,55.4 152.3,44 160.7,61.1 	"/>
	<g>
		<path class="st69" d="M152.3,44l-4-32.6c-0.1,0-0.3,0-0.4-0.1l-4,26.9L152.3,44z"/>
	</g>
	<polygon class="st70" points="160.7,61.1 169,55.4 164.8,66.7 	"/>
	<polygon class="st71" points="164.8,38.3 169,55.4 160.7,61.1 	"/>
	<g>
		<path class="st72" d="M152.3,89.5v25.9c0.4-0.1,0.9-0.2,1.3-0.4l11.3-25.5H152.3z"/>
	</g>
	<polygon class="st73" points="152.3,44 164.8,38.3 160.7,61.1 	"/>
	<g>
		<path class="st74" d="M162.1,16c-4.1-2-8.4-3.5-13-4.4l15.7,26.7L162.1,16z"/>
	</g>
	<polygon class="st75" points="164.8,38.3 173.2,38.3 169,55.4 	"/>
	<polygon class="st76" points="164.8,72.4 173.2,78.1 164.8,89.5 	"/>
	<polygon class="st77" points="164.8,72.4 164.8,66.7 173.2,78.1 	"/>
	<g>
		<path class="st78" d="M153.6,115c1.9-0.5,3.7-1.2,5.5-1.9l5.8-23.6L153.6,115z"/>
		<path class="st79" d="M173.2,38.3l-7.5-20.4c-1.2-0.7-2.4-1.3-3.6-1.9l2.7,22.3H173.2z"/>
	</g>
	<polygon class="st80" points="164.8,66.7 169,55.4 173.2,78.1 	"/>
	<g>
		<path class="st81" d="M159.1,113.1c5.4-2.2,10.3-5.3,14.7-9.1l-8.9-14.5L159.1,113.1z"/>
		<path class="st82" d="M164.8,89.5h20.6c0.4-0.7,0.8-1.5,1.2-2.3l-13.4-9.1L164.8,89.5z"/>
		<path class="st83" d="M173.7,104c4.7-4.1,8.7-9,11.7-14.5h-20.6L173.7,104z"/>
		<path class="st84" d="M180.5,30.8c-4.1-5.2-9.1-9.6-14.8-12.9l7.5,20.4L180.5,30.8z"/>
		<path class="st85" d="M173.2,78.1l13.4,9.1c0.3-0.6,0.6-1.2,0.8-1.8L169,55.4L173.2,78.1z"/>
		<path class="st86" d="M184.5,36.6c-1.2-2-2.5-3.9-4-5.8l-7.3,7.5L184.5,36.6z"/>
		<path class="st87" d="M188.1,83.9c2.5-6.1,3.9-12.7,3.9-19.7c0.1-10.1-2.7-19.5-7.5-27.6l-11.3,1.7L188.1,83.9z"/>
		<path class="st88" d="M169,55.4l18.4,30.1c0.2-0.5,0.4-1,0.7-1.5l-14.9-45.6L169,55.4z"/>
		<path class="st89" d="M16.5,91.2c-0.1,0-0.2,0-0.3,0c-2.6-0.2-4.2,1.9-4.2,4h6.4L16.5,91.2z"/>
		<path class="st90" d="M12,95.2c0,1.2,0.6,2.5,1.9,3.3l3.2,2l1.3-5.2H12z"/>
		<path class="st91" d="M19.8,91.4c-1.2-0.1-2.3-0.2-3.4-0.2l2,4L19.8,91.4z"/>
	</g>
	<polygon class="st92" points="17.1,100.4 18.4,95.2 26.8,100.9 23.2,104.1 	"/>
	<g>
		<path class="st93" d="M26.8,100.9l-2.2-9.1c-1.6-0.1-3.2-0.3-4.7-0.4l-1.4,3.8L26.8,100.9z"/>
		<path class="st94" d="M26.8,92c-0.8-0.1-1.5-0.1-2.2-0.2l2.2,9.1V92z"/>
		<path class="st95" d="M35.1,95.2l-1.9-2.5c-2.2-0.3-4.4-0.5-6.5-0.7v8.9L35.1,95.2z"/>
	</g>
	<polygon class="st96" points="26.8,100.9 35.1,95.2 39.3,106.6 	"/>
	<g>
		<path class="st97" d="M36.7,93c-1.2-0.1-2.3-0.3-3.4-0.4l1.9,2.5L36.7,93z"/>
	</g>
	<polygon class="st98" points="23.2,104.1 26.8,100.9 39.3,106.6 30.5,108.6 	"/>
	<polygon class="st99" points="30.5,108.5 39.3,106.6 39.3,113.9 	"/>
	<g>
		<path class="st100" d="M39.3,106.6V93.4c-0.9-0.1-1.8-0.2-2.6-0.3l-1.6,2.1L39.3,106.6z"/>
	</g>
	<polygon class="st101" points="39.3,113.9 39.3,106.6 51.9,117.9 50.4,120.6 	"/>
	<g>
		<path class="st102" d="M46.1,94.4c-2.3-0.4-4.5-0.7-6.7-1v13.2L46.1,94.4z"/>
		<path class="st103" d="M51.9,117.9V95.3c-2-0.4-3.9-0.7-5.8-1l-6.7,12.2L51.9,117.9z"/>
	</g>
	<polygon class="st104" points="50.4,120.6 51.9,117.9 52.8,122.1 	"/>
	<polygon class="st105" points="52.8,122.1 51.9,117.9 68.6,117.9 66,130.2 	"/>
	<g>
		<path class="st106" d="M68.6,117.9L58.1,96.5c-2.1-0.4-4.2-0.8-6.2-1.2v22.6H68.6z"/>
		<path class="st107" d="M76.8,101.2c-6.2-1.9-12.5-3.4-18.7-4.6l10.5,21.4L76.8,101.2z"/>
	</g>
	<polygon class="st108" points="66.1,130.2 68.6,117.9 73.6,134.7 	"/>
	<g>
		<path class="st109" d="M81.2,106.6l-3.9-5.2c-0.2,0-0.3-0.1-0.5-0.1l-8.2,16.8L81.2,106.6z"/>
	</g>
	<polygon class="st110" points="73.6,134.7 68.6,117.9 85.4,117.9 79.4,138.3 	"/>
	<polygon class="st111" points="68.6,117.9 81.2,106.6 85.4,117.9 	"/>
	<g>
		<path class="st112" d="M89.5,106.6l-0.6-1.3c-2.5-1-5.1-1.9-7.7-2.7v4H89.5z"/>
	</g>
	<polygon class="st113" points="81.2,106.6 89.5,106.6 89.5,112.2 	"/>
	<polygon class="st114" points="81.2,106.6 89.5,112.2 85.4,117.9 	"/>
	<g>
		<path class="st93" d="M81.2,102.5c-1.3-0.4-2.6-0.8-3.9-1.2l3.9,5.2V102.5z"/>
		<path class="st115" d="M90.1,105.7c-0.4-0.2-0.8-0.3-1.2-0.5l0.6,1.3L90.1,105.7z"/>
	</g>
	<polygon class="st116" points="85.4,117.9 89.5,112.2 97.9,117.9 	"/>
	<polygon class="st117" points="79.4,138.3 85.4,117.9 102.1,123.6 83.3,140.6 	"/>
	<polygon class="st118" points="85.4,117.9 97.9,117.9 102.1,123.6 	"/>
	<polygon class="st119" points="89.5,112.2 89.5,106.6 97.9,117.9 	"/>
	<g>
		<path class="st120" d="M97.9,117.9l-2.4-9.9c-1.8-0.8-3.5-1.5-5.3-2.2l-0.6,0.8L97.9,117.9z"/>
		<path class="st121" d="M102.1,123.6l3.8-10.4c-0.2-0.1-0.4-0.2-0.6-0.4l-7.4,5L102.1,123.6z"/>
		<path class="st122" d="M105.3,112.9c-3.1-1.8-6.4-3.4-9.8-4.9l2.4,9.9L105.3,112.9z"/>
		<path class="st123" d="M92.7,146.4l3.1,1.9c0.7,0.4,1.2,1,1.5,1.7l0.2,0.4l8.8-4H92.7z"/>
	</g>
	<polygon class="st124" points="92.7,146.4 83.3,140.6 102.1,123.6 106.3,146.4 	"/>
	<polygon class="st125" points="102.1,123.6 110.5,135 106.3,146.4 	"/>
	<polygon class="st126" points="105.3,167.1 110.5,169.1 107.7,172.2 	"/>
	<polygon class="st127" points="105.3,167.1 97.5,150.3 106.3,146.4 110.5,169.1 	"/>
	<polygon class="st128" points="107.7,172.2 110.5,169.1 118.8,180.5 113,183.5 	"/>
	<polygon class="st129" points="113,183.5 118.8,180.5 117.3,192.7 	"/>
	<g>
		<path class="st130" d="M110.5,135l-3.9-21.4c-0.2-0.1-0.4-0.2-0.6-0.4l-3.8,10.4L110.5,135z"/>
		<path class="st131" d="M118.8,135l-11.5-20.9c-0.3-0.2-0.5-0.3-0.8-0.4l3.9,21.4H118.8z"/>
	</g>
	<polygon class="st132" points="110.5,135 118.8,135 106.3,146.4 	"/>
	<polygon class="st133" points="106.3,146.4 118.8,135 110.5,169.1 	"/>
	<polygon class="st134" points="127.6,214.6 135.6,214.6 129.2,218.1 	"/>
	<g>
		<path class="st135" d="M129.2,218.1l4.1,8.8c0,0,0,0,0,0l2.3-12.3L129.2,218.1z"/>
		<path class="st136" d="M127.2,131.2c-5.2-6.8-12-12.4-19.9-17.1l11.5,20.9L127.2,131.2z"/>
	</g>
	<polygon class="st137" points="127.6,214.6 117.3,192.7 118.8,180.5 135.6,214.6 	"/>
	<g>
		<path class="st138" d="M133.3,226.9c0.8,1.7,2.5,2.4,4.2,2.2l5.6-7.6l0.7-1.4l-8.1-5.5L133.3,226.9z"/>
	</g>
	<polygon class="st139" points="110.5,169.1 118.8,135 118.8,180.5 	"/>
	<polygon class="st140" points="118.8,180.5 148.1,203.2 135.6,214.6 	"/>
	<polygon class="st141" points="118.8,180.5 148.1,180.5 148.1,203.2 	"/>
	<polygon class="st142" points="135.6,214.6 148.1,203.2 144.2,219 143.7,220.1 	"/>
	<g>
		<path class="st143" d="M149.5,129.3c-1.1,1.3-2.2,2.7-3.2,4.1l6,1.6L149.5,129.3z"/>
		<path class="st144" d="M152.3,126.3c-1,1-1.9,2-2.8,3l2.8,5.7V126.3z"/>
	</g>
	<polygon class="st145" points="148.1,180.5 152.3,186.2 148.1,203.2 	"/>
	<g>
		<path class="st146" d="M148.1,180.5l-9.6-29.5c-0.8,3.4-1.2,7.1-1.2,10.9c0.1-10.3-2.6-19.2-7.4-26.7l-11.1,45.3H148.1z"/>
		<path class="st147" d="M118.8,180.5l11.1-45.3c-0.9-1.4-1.8-2.7-2.8-4l-8.3,3.8V180.5z"/>
		<path class="st148" d="M140.4,226.9l2.6-5.4l-5.6,7.6C138.7,228.9,139.8,228.2,140.4,226.9"/>
	</g>
	<polygon class="st149" points="148.1,203.2 152.3,186.2 154.9,196.9 151.9,203.2 	"/>
	<polygon class="st150" points="148.1,180.5 152.3,174.8 156.5,180.5 	"/>
	<polygon class="st151" points="148.1,180.5 156.5,180.5 152.3,186.2 	"/>
	<g>
		<path class="st152" d="M156.5,123.6l-0.5-0.7c-1.3,1.1-2.5,2.2-3.7,3.4v8.7L156.5,123.6z"/>
		<path class="st153" d="M152.3,135l-6-1.6c-2.9,4.1-5.2,8.7-6.8,13.7l12.8,27.8V135z"/>
		<path class="st154" d="M152.3,174.8L139.5,147c-0.4,1.3-0.8,2.6-1,4l9.6,29.5L152.3,174.8z"/>
	</g>
	<polygon class="st155" points="152.3,186.2 156.5,180.5 159.2,188 158.2,190.2 	"/>
	<polygon class="st156" points="152.3,186.2 158.2,190.2 154.9,196.9 	"/>
	<polygon class="st157" points="148.1,203.2 151.9,203.2 144.2,219 	"/>
	<polygon class="st158" points="152.3,135 156.5,123.6 164.8,135 	"/>
	<polygon class="st159" points="152.3,135 164.8,135 160.7,140.7 	"/>
	<polygon class="st160" points="152.3,135 160.7,140.7 152.3,174.8 	"/>
	<polygon class="st161" points="160.7,140.7 169,152 152.3,174.8 	"/>
	<polygon class="st162" points="156.5,180.5 164.2,177.9 159.2,188 	"/>
	<polygon class="st163" points="152.3,174.8 165.6,174.8 164.1,177.9 156.5,180.5 	"/>
	<polygon class="st164" points="152.3,174.8 169,152.1 171.1,163.5 165.6,174.8 	"/>
	<polygon class="st165" points="160.7,140.7 164.8,135 169,152 	"/>
	<polygon class="st166" points="169,152 173.2,152 173.2,159.2 171.1,163.5 	"/>
	<polygon class="st167" points="169,152 164.8,135 173.2,152 	"/>
	<g>
		<path class="st78" d="M156.8,122.1c-0.3,0.3-0.6,0.5-0.9,0.8l0.5,0.7L156.8,122.1z"/>
	</g>
	<polygon class="st168" points="164.8,135 185.8,140.7 173.2,152 	"/>
	<polygon class="st169" points="164.8,135 185.8,123.6 185.8,140.7 	"/>
	<polygon class="st170" points="156.5,123.6 185.8,123.6 164.8,135 	"/>
	<g>
		<path class="st81" d="M185.8,123.6l-8.5-13.9c-7.5,3.4-14.5,7.5-20.4,12.5l-0.4,1.5H185.8z"/>
		<path class="st83" d="M188,105.3c-3.7,1.3-7.3,2.8-10.8,4.4l8.5,13.9L188,105.3z"/>
		<path class="st171" d="M194.1,112.2l-1.6-8.5c-1.5,0.5-3.1,1-4.6,1.6l-2.2,18.3L194.1,112.2z"/>
	</g>
	<polygon class="st172" points="185.8,123.6 194.1,135 185.8,140.7 	"/>
	<polygon class="st173" points="194.1,112.2 202.5,117.9 194.1,135 	"/>
	<polygon class="st174" points="185.8,123.6 194.1,112.2 194.1,135 	"/>
	<g>
		<path class="st175" d="M173.2,152v7.1l4.2-8.7c0.3-0.7,0.9-1.3,1.5-1.7l4.9-2.9l1.9-5.2L173.2,152z"/>
	</g>
	<polygon class="st176" points="185.8,140.7 194.1,135 196.6,138.4 189.4,142.6 	"/>
	<polygon class="st177" points="185.8,140.7 189.4,142.6 183.8,145.9 	"/>
	<g>
		<path class="st178" d="M215.1,112.2V98c-1.4,0.3-2.8,0.6-4.1,0.9l-8.4,19L215.1,112.2z"/>
		<path class="st179" d="M205.2,100.2c-4.2,1-8.5,2.2-12.6,3.6l1.6,8.5L205.2,100.2z"/>
		<path class="st180" d="M202.5,117.9l8.4-19c-1.9,0.4-3.8,0.9-5.7,1.3l-11.1,12L202.5,117.9z"/>
	</g>
	<polygon class="st181" points="194.1,135 202.5,117.9 211.2,129.8 202.3,135 	"/>
	<polygon class="st182" points="194.1,135 202.3,135 196.6,138.4 	"/>
	<polygon class="st183" points="202.5,117.9 215.1,112.2 215.1,127.5 211.2,129.8 	"/>
	<g>
		<path class="st184" d="M227.6,100.9l-4.7-4.3c-2.6,0.4-5.2,0.9-7.8,1.4v14.2L227.6,100.9z"/>
	</g>
	<polygon class="st185" points="215.1,112.2 219.7,124.8 215.1,127.5 	"/>
	<polygon class="st186" points="215.1,112.2 231.5,117.8 219.7,124.8 	"/>
	<polygon class="st187" points="215.1,112.2 231.8,112.2 231.8,117.6 231.5,117.8 	"/>
	<polygon class="st188" points="215.1,112.2 227.6,100.9 231.8,112.2 	"/>
	<g>
		<path class="st189" d="M226.7,96c-1.3,0.2-2.5,0.4-3.8,0.6l4.7,4.3L226.7,96z"/>
		<path class="st190" d="M231.7,95.3c-1.7,0.2-3.3,0.5-5,0.7l0.9,4.9L231.7,95.3z"/>
		<path class="st191" d="M231.8,112.2l3.2-17.4c-1.1,0.1-2.2,0.3-3.3,0.4l-4.1,5.6L231.8,112.2z"/>
		<path class="st192" d="M240.6,94.2l11.3,11.6l0.3-0.2l-6.6-11.9C244,93.8,242.3,94,240.6,94.2"/>
		<path class="st193" d="M235,94.8l-3.2,17.4l16.9-4.6l3.2-1.9l-11.3-11.6C238.8,94.4,236.9,94.6,235,94.8"/>
	</g>
	<polygon class="st194" points="231.8,112.2 248.7,107.6 238,113.9 	"/>
	<polygon class="st195" points="231.8,112.2 238,113.9 231.8,117.6 	"/>
	<g>
		<path class="st196" d="M253.8,93.1c-2.6,0.2-5.3,0.4-8.2,0.6l6.6,11.9l1.1-0.7l3.6-9.7L253.8,93.1z"/>
		<path class="st197" d="M257.4,92.9c-1.1,0.1-2.3,0.1-3.6,0.2l3.1,2.1L257.4,92.9z"/>
		<path class="st198" d="M253.3,104.9l8.2-4.8c1.9-1.1,2.3-3.2,1.6-4.9h-6.2L253.3,104.9z"/>
		<path class="st199" d="M259.3,92.8c-0.6,0-1.3,0.1-1.9,0.1l-0.5,2.3h6.2C262.5,93.8,261.2,92.7,259.3,92.8"/>
	</g>
</g>
</svg>
