<?xml version="1.0" encoding="utf-8"?>
<!-- Generator: Adobe Illustrator 21.1.0, SVG Export Plug-In . SVG Version: 6.00 Build 0)  -->
<svg version="1.1" id="Lag_1" xmlns="http://www.w3.org/2000/svg" xmlns:xlink="http://www.w3.org/1999/xlink" x="0px" y="0px"
	 viewBox="0 0 442 397" style="enable-background:new 0 0 442 397;" xml:space="preserve">
<style type="text/css">
	.st0{fill:#333333;}
	.st1{fill:#EDDB8D;}
	.st2{fill:#2BBCD5;}
	.st3{fill:#2D469C;}
	.st4{fill:#4E51A2;}
	.st5{fill:#BFDA83;}
	.st6{fill:#EE3B31;}
	.st7{fill:#42B549;}
	.st8{fill:#D33B94;}
	.st9{fill:#4FA346;}
	.st10{fill:#224FA1;}
	.st11{fill:#6EBD44;}
	.st12{fill:#8C8E32;}
	.st13{fill:#487A6A;}
	.st14{fill:#113E1F;}
	.st15{fill:#EBE739;}
	.st16{fill:#4D464F;}
	.st17{fill:#33B780;}
	.st18{fill:#456FB5;}
	.st19{fill:#3053A4;}
	.st20{fill:#ED2E4A;}
	.st21{fill:#DB6633;}
	.st22{fill:#BFC633;}
	.st23{fill:#4E2C7B;}
	.st24{fill:#158D48;}
	.st25{fill:#87ABB1;}
	.st26{fill:#3B5FAB;}
	.st27{fill:#95C83D;}
	.st28{fill:#3560AB;}
	.st29{fill:#72BE44;}
	.st30{fill:#227074;}
	.st31{fill:#F5DE30;}
	.st32{fill:#76B4CF;}
	.st33{fill:#7980BE;}
	.st34{fill:#A65FA5;}
	.st35{fill:#DF6E61;}
	.st36{fill:#941839;}
	.st37{fill:#81C56F;}
	.st38{fill:#BE4427;}
	.st39{fill:#4257A6;}
	.st40{fill:#C85827;}
	.st41{fill:#ACA335;}
	.st42{fill:#FCE42F;}
	.st43{fill:#7797C2;}
	.st44{fill:#4B2E88;}
	.st45{fill:#69CADF;}
	.st46{fill:#5A61A7;}
	.st47{fill:#53C0AF;}
	.st48{fill:#5986BA;}
	.st49{fill:#746AAF;}
	.st50{fill:#577E45;}
	.st51{fill:#32B34A;}
	.st52{fill:#58C2B3;}
	.st53{fill:#24568A;}
	.st54{fill:#C483B8;}
	.st55{fill:#86C774;}
	.st56{fill:#8565AB;}
	.st57{fill:#885FA7;}
	.st58{fill:#41986E;}
	.st59{fill:#601025;}
	.st60{fill:#6D9794;}
	.st61{fill:#61BF85;}
	.st62{fill:#7E7F86;}
	.st63{fill:#2DB461;}
	.st64{fill:#8599B0;}
	.st65{fill:#888130;}
	.st66{fill:#2FA559;}
	.st67{fill:#E18E74;}
	.st68{fill:#3D5265;}
	.st69{fill:#2B5EA5;}
	.st70{fill:#6EB59F;}
	.st71{fill:#33733F;}
	.st72{fill:#223D45;}
	.st73{fill:#C4AABE;}
	.st74{fill:#402F88;}
	.st75{fill:#8B8185;}
	.st76{fill:#F7DEA0;}
	.st77{fill:#474A1C;}
	.st78{fill:#5DBD7B;}
	.st79{fill:#5A85C3;}
	.st80{fill:#928EA8;}
	.st81{fill:#ED282A;}
	.st82{fill:#5B3895;}
	.st83{fill:#3BB66C;}
	.st84{fill:#D48D32;}
	.st85{fill:#000F28;}
	.st86{fill:#47769C;}
	.st87{fill:#42C2D6;}
	.st88{fill:#83479B;}
	.st89{fill:#5BB947;}
	.st90{fill:#6C3123;}
	.st91{fill:#293474;}
	.st92{fill:#A6CE42;}
	.st93{fill:#74C27E;}
	.st94{fill:#158A80;}
	.st95{fill:#63BB46;}
	.st96{fill:#375C2B;}
	.st97{fill:#4159A7;}
	.st98{fill:#6F3995;}
	.st99{fill:#DCA9CD;}
	.st100{fill:#6D9077;}
	.st101{fill:#6FBD44;}
	.st102{fill:#1E2719;}
	.st103{fill:#2EB468;}
	.st104{fill:#5DBB67;}
	.st105{fill:#4A1C11;}
	.st106{fill:#69BE68;}
	.st107{fill:#2AB99D;}
	.st108{fill:#49B649;}
	.st109{fill:#7D277E;}
	.st110{fill:#797CBA;}
	.st111{fill:#4CBCB9;}
	.st112{fill:#C370AC;}
	.st113{fill:#4D2112;}
	.st114{fill:#D3ABD0;}
	.st115{fill:#A88452;}
	.st116{fill:#7A93CB;}
	.st117{fill:#8C7453;}
	.st118{fill:#C08278;}
	.st119{fill:#7E6468;}
	.st120{fill:#65C7CA;}
	.st121{fill:#A7DCDE;}
	.st122{fill:#C8D288;}
	.st123{fill:#ED332A;}
	.st124{fill:#68C4AA;}
	.st125{fill:#C674A5;}
	.st126{fill:#5C479C;}
	.st127{fill:#6EC8C0;}
	.st128{fill:#AF499A;}
	.st129{fill:#E09871;}
	.st130{fill:#37B34A;}
	.st131{fill:#3A5AA7;}
	.st132{fill:#2B50A2;}
	.st133{fill:#ECE738;}
	.st134{fill:#7CC142;}
	.st135{fill:#28B897;}
	.st136{fill:#321C33;}
	.st137{fill:#ED2A2D;}
	.st138{fill:#3258A7;}
	.st139{fill:#ACD268;}
	.st140{fill:#5EBA47;}
	.st141{fill:#8064AA;}
	.st142{fill:#C84396;}
	.st143{fill:#8052A0;}
	.st144{fill:#49215D;}
	.st145{fill:#EF4D51;}
	.st146{fill:#83C562;}
	.st147{fill:#E3EBA6;}
	.st148{fill:#824D9D;}
	.st149{fill:#58C7DD;}
	.st150{fill:#D7E15A;}
	.st151{fill:#B78558;}
	.st152{fill:#8A669D;}
	.st153{fill:#4888C7;}
	.st154{fill:#6E4399;}
	.st155{fill:#A18127;}
	.st156{fill:#DE4B9A;}
	.st157{fill:#29A097;}
	.st158{fill:#38395F;}
	.st159{fill:#7D495B;}
	.st160{fill:#B7D778;}
	.st161{fill:#299ED4;}
	.st162{fill:#DE1B49;}
	.st163{fill:#5FBF92;}
	.st164{fill:#91B86C;}
	.st165{fill:#B97A29;}
	.st166{fill:#ED2D76;}
	.st167{fill:#25AA4A;}
	.st168{fill:#777747;}
	.st169{fill:#3854A4;}
	.st170{fill:#37C4EC;}
	.st171{fill:#9ACC72;}
	.st172{fill:#3269B2;}
	.st173{fill:#BF202E;}
	.st174{fill:#4652A2;}
	.st175{fill:#4DBB8D;}
	.st176{fill:#6ABE65;}
	.st177{fill:#714B92;}
	.st178{fill:#60C19E;}
	.st179{fill:#9BD2AD;}
	.st180{fill:#8A5F63;}
	.st181{fill:#5489B0;}
	.st182{fill:#D0B0D3;}
	.st183{fill:#D41B50;}
	.st184{fill:#199BA4;}
	.st185{fill:#7F525A;}
	.st186{fill:#8C6F23;}
	.st187{fill:#4A4C9F;}
	.st188{fill:#65BE76;}
	.st189{fill:#4653A3;}
	.st190{fill:#AB4624;}
	.st191{fill:#8897AD;}
	.st192{fill:#44B65F;}
	.st193{fill:#BA1777;}
	.st194{fill:#639BB7;}
	.st195{fill:#417668;}
	.st196{fill:#B1D240;}
	.st197{fill:#89519F;}
	.st198{fill:#564EA0;}
	.st199{fill:#3C469C;}
</style>
<g>
	<path class="st0" d="M95.7,190.3v138.4h-7.4c-4.7,0-6.3-3.6-6.3-7.8V190.8c0-7.6-9.2-7.2-9.2,0.2v34.7h8.7l-8.7,14.1v89H65
		c-4.7,0-5.8-3.6-5.8-7.8V191c0-4.9,1.6-18.8,18.1-18.8C92.5,172.2,95.7,182.5,95.7,190.3"/>
	<path class="st0" d="M127,264.6c0-7.4-1.6-7.8-3.8-9.6l-5.6-3.8v59.7c0,5.8,9.4,5.8,9.4,0V264.6z M140.4,310.9
		c0,7.8-2,17.9-18.3,17.9c-15.7,0-18.1-11.6-18.1-18.1V200.4c6.5,0,13.6,0,13.6,12.5v16.3c0,6,4.9,7.8,12.5,13.4
		c7.8,5.8,10.3,8.7,10.3,14.5V310.9z"/>
	<path class="st0" d="M185.1,248.7v1.8c0,11.6-11,11.9-13.4,11.9v-13.6c0-5.8-9.4-5.8-9.4,0v72c0,4.5-1.1,8.1-6,8.1h-7.6v-79.8
		c0-6.5,2.5-18.1,18.1-18.1C183.1,230.8,185.1,240.9,185.1,248.7"/>
	<path class="st0" d="M203.2,310.9c0,5.8,9.4,5.8,9.4,0v-30.2l-5.4,3.8c-2.5,1.8-4,2.2-4,9.6V310.9z M226,310.7
		c0,6.5-2.2,18.1-17.9,18.1c-16.3,0-18.3-10.1-18.3-17.9v-24.4c0-5.6,2.5-8.9,10.3-14.3c8.1-5.6,12.5-7.4,12.5-13.4v-9.2
		c0-7.4-9.4-7.6-9.4,0v6c0,8-13.4,8.5-13.4,8.5v-14.5c0,0,0-18.8,18.1-18.8c12.5,0,18.1,6.7,18.1,18.8V310.7z"/>
	<path class="st0" d="M271.2,328.8h-7.4c-4.7,0-6-3.6-6-8.1v-56.1c0-7.4-1.6-7.8-3.8-9.6l-5.6-3.8v77.6h-7.6c-4.7,0-6-3.6-6-8.1
		V191.2c7.4,0,13.6-0.4,13.6,13.2v24.8c0,6,4.7,7.8,12.5,13.4c8.1,5.8,10.3,8.7,10.3,14.5"/>
	<path class="st0" d="M292.7,310.9c0,5.8,9.4,5.8,9.4,0v-30.2l-5.4,3.8c-2.5,1.8-4,2.2-4,9.6V310.9z M315.5,310.7
		c0,6.5-2.2,18.1-17.9,18.1c-16.3,0-18.3-10.1-18.3-17.9v-24.4c0-5.6,2.5-8.9,10.3-14.3c8.1-5.6,12.5-7.4,12.5-13.4v-9.2
		c0-7.4-9.4-7.6-9.4,0v6c0,8-13.4,8.5-13.4,8.5v-14.5c0,0,0-18.8,18.1-18.8c12.5,0,18.1,6.7,18.1,18.8V310.7z"/>
	<path class="st0" d="M383.9,249.6v79.2h-7.6c-4.7,0-6-3.6-6-8.1v-70.9c0-6.7-9.4-6.7-9.4,0v78.9h-7.6c-4.7,0-6-3.6-6-8.1v-70.9
		c0-6.7-9.4-6.7-9.4,0v78.9h-7.6c-4.9,0-6-3.6-6-8.1v-70.9c0-6.7,1.6-19,18.3-19c5.1,0,8.9,1.3,11.6,3.1c2.7-1.8,6.5-3.1,11.4-3.1
		C382.1,230.8,383.9,243.1,383.9,249.6"/>
	<path class="st0" d="M410.8,172c18.1,0,18.1,18.6,18.1,18.6v44.7c0,0-13.4,0.2-13.4-8.7v-35.8c0-7.4-9.2-7.4-9.2,0v39.6
		c0,6,4,8.5,12.3,13.4c8.3,4.7,10.3,8.7,10.3,14.1v53.2c0,7.8-2,17.7-18.1,17.7c-15.7,0-18.1-11.4-18.1-17.9v-49
		c0,0,13.6,0,13.6,8.5v40.7c0,5.8,9.2,5.8,9.2,0v-45.8c0-7.2-1.6-7.6-3.8-9.4l-13.4-8.9c-6.5-4.5-5.6-14.3-5.6-14.3v-41.8
		C392.6,190.8,392.9,172,410.8,172"/>
	<path class="st0" d="M428.9,345.5h-5.5V366c0,0.7,0.1,1.6,0.4,2.7l-9-23.2h-4.9v37.6h5.5v-20.9c0-0.7-0.1-1.6-0.4-2.7l9,23.6h4.9
		V345.5z M400.2,366.1c1.9,0,3.1-0.1,3.6-0.4c1.1-0.5,1.6-1.5,1.6-3.1V349c0-2.3-1.1-3.5-3.4-3.5h-14.9v37.6h5.6v-32.7h7.1v11.9
		h-5.5v3.4l6.2,17.5h5.9L400.2,366.1z M369.3,350.4h7.7v27.9h-7.7V350.4z M382.7,349c0-1.4-0.4-2.4-1.3-2.9l1.1-3.9v-0.3h-5.7
		l-1,3.7h-8.6c-2.2,0-3.3,1.2-3.3,3.5v30.7c0,1.5,0.5,2.5,1.5,3l-1.1,3.8v0.3h5.7l1-3.7h8.4c2.3,0,3.4-1.1,3.4-3.4V349z
		 M346.5,378.4v-12.5h4.4l2.8,1.8v10.7H346.5z M350.8,361.3h-4.3v-11h7v9.1L350.8,361.3z M359.3,368.5c0-1.3-0.4-2.3-1.3-3.1
		c-0.1-0.1-1.1-0.8-3-1.9c1.8-1.1,2.8-1.8,2.9-1.8c0.8-0.7,1.2-1.7,1.2-3V349c0-2.3-1.1-3.5-3.3-3.5h-14.9v37.6h15
		c2.3,0,3.4-1.1,3.4-3.4V368.5z M326.9,378.1h-10v-11.8h8.5v-4.9h-8.5v-11h9.8v-5h-15.4v37.6h15.6V378.1z M308.5,345.5h-18v5h6.2
		v32.6h5.6v-32.6h6.2V345.5z M287.6,363h-9.8v4.8h4.2v10.5h-7.3v-27.9h7.3v6.7h5.6v-8c0-2.3-1.1-3.5-3.4-3.5h-11.7
		c-2.3,0-3.4,1.2-3.4,3.5v30.7c0,2.3,1.1,3.4,3.3,3.4h11.8c2.3,0,3.4-1.1,3.4-3.4V363z M252.9,371.2l2.8-17l2.7,17H252.9z
		 M258.7,345.5h-5.9l-7.3,37.5v0.1h5.5l1.1-7.1h7l1.1,7.1h5.6L258.7,345.5z M237.2,366.1c1.9,0,3.1-0.1,3.6-0.4
		c1.1-0.5,1.6-1.5,1.6-3.1V349c0-2.3-1.1-3.5-3.4-3.5h-14.9v37.6h5.6v-32.7h7.1v11.9h-5.5v3.4l6.2,17.5h5.9L237.2,366.1z M207,378.4
		v-12.5h4.4l2.8,1.8v10.7H207z M211.3,361.3H207v-11h7v9.1L211.3,361.3z M219.8,368.5c0-1.3-0.4-2.3-1.3-3.1c-0.1-0.1-1.1-0.8-3-1.9
		c1.8-1.1,2.8-1.8,2.9-1.8c0.8-0.7,1.2-1.7,1.2-3V349c0-2.3-1.1-3.5-3.3-3.5h-14.9v37.6h15c2.3,0,3.4-1.1,3.4-3.4V368.5z
		 M196.8,345.5h-5.5V366c0,0.7,0.1,1.6,0.4,2.7l-9-23.2h-4.9v37.6h5.5v-20.9c0-0.7-0.1-1.6-0.4-2.7l9,23.6h4.9V345.5z M174,378.1
		h-10v-11.8h8.5v-4.9H164v-11h9.8v-5h-15.4v37.6H174V378.1z M153.9,345.5h-5.3l-5.9,20.8c-0.1,0.7-0.1,1.3-0.1,1.7
		c0-0.9-0.1-1.5-0.1-1.7l-5.9-20.8h-5.3v37.6h5.4v-18.5c0-0.9-0.1-2.3-0.3-4.1l4.9,19.2h2.9l4.9-19.2c-0.2,1.7-0.3,3.1-0.3,4.1v18.5
		h5.4V345.5z M126.7,345.5h-5.3l-5.9,20.8c-0.1,0.7-0.1,1.3-0.1,1.7c0-0.9-0.1-1.5-0.1-1.7l-5.9-20.8H104v37.6h5.4v-18.5
		c0-0.9-0.1-2.3-0.3-4.1l4.9,19.2h2.9l4.9-19.2c-0.2,1.7-0.3,3.1-0.3,4.1v18.5h5.4V345.5z M87.8,371.2l2.8-17l2.7,17H87.8z
		 M93.6,345.5h-5.9L80.4,383v0.1H86l1.1-7.1h7l1.1,7.1h5.6L93.6,345.5z M77.3,370.7c0-1.3-0.4-2.3-1.2-3l-11.3-10.6v-6.8h6.9v7.1
		h5.6V349c0-2.3-1.1-3.4-3.4-3.4H62.6c-2.3,0-3.4,1.2-3.4,3.5v8.4c0,1.2,0.4,2.2,1.2,3L71.7,371v7.4h-6.9v-7.7h-5.6v9
		c0,2.3,1.1,3.4,3.4,3.4h11.3c2.3,0,3.4-1.1,3.4-3.4V370.7z"/>
	<g>
		<polygon class="st1" points="89.3,65.1 89.3,65 89.4,65.1 		"/>
		<g>
			<path class="st2" d="M89.3,65.1C89.3,65.1,89.3,65.1,89.3,65.1L89.3,65.1L89.3,65.1z"/>
			<path class="st3" d="M89.3,65.1C89.3,65.2,89.3,65.2,89.3,65.1L89.3,65.1L89.3,65.1z"/>
			<path class="st4" d="M89.3,65C89.3,65,89.3,65,89.3,65L89.3,65L89.3,65z"/>
			<path class="st5" d="M94.5,91c0.4,0.8,0.8,1.7,1.3,2.5h6.1L94.5,91z"/>
			<path class="st6" d="M95.8,93.5c1.2,2.1,2.4,4.1,3.9,6l2.2-6H95.8z"/>
			<path class="st7" d="M89.4,65.1l0,0.2c0,0.8-0.1,1.5-0.1,2.3c0,5.8,0.9,11.4,2.6,16.7l14.3-7.8L89.4,65.1z"/>
			<path class="st8" d="M106.1,76.4l-14.3,7.8c0.8,2.3,1.7,4.6,2.7,6.8l7.4,2.5L106.1,76.4z"/>
			<path class="st9" d="M106.1,53.7L102.3,33c-0.7,0.8-1.4,1.6-2,2.5L89.4,65.1L106.1,53.7z"/>
			<path class="st10" d="M100.2,35.5C93.9,43.7,89.9,53.9,89.3,65l0,0L100.2,35.5z"/>
			<path class="st11" d="M110.3,48l-7.6-15.5c-0.1,0.2-0.3,0.3-0.4,0.5l3.8,20.7L110.3,48z"/>
		</g>
		<polygon class="st12" points="89.4,65.1 106.1,53.7 106.1,76.4 		"/>
		<g>
			<path class="st13" d="M114.5,22.6c-0.6,0.4-1.1,0.7-1.7,1.1l1.7,1.5V22.6z"/>
		</g>
		<polygon class="st14" points="106.1,76.4 114.5,70.7 114.5,76.4 		"/>
		<g>
			<path class="st15" d="M112.7,23.7c-2.4,1.6-4.6,3.4-6.7,5.4l8.4-3.8L112.7,23.7z"/>
		</g>
		<polygon class="st16" points="106.1,53.7 114.5,70.7 106.1,76.4 		"/>
		<g>
			<path class="st17" d="M99.7,99.5c2.2,2.9,4.7,5.7,7.4,8.1l-5.2-14.1L99.7,99.5z"/>
		</g>
		<polygon class="st18" points="106.1,76.4 114.5,76.4 101.9,93.5 		"/>
		<g>
			<path class="st19" d="M114.5,25.2l-8.4,3.8c-1.2,1.1-2.3,2.3-3.4,3.5l7.6,15.5L114.5,25.2z"/>
		</g>
		<polygon class="st20" points="122.8,59.4 122.8,65.1 114.5,70.7 		"/>
		<polygon class="st21" points="106.1,53.7 110.3,48 122.8,59.4 		"/>
		<polygon class="st22" points="106.1,53.7 122.8,59.4 114.5,70.7 		"/>
		<polygon class="st23" points="110.3,48 127,53.7 122.8,59.4 		"/>
		<polygon class="st24" points="110.3,48 127,36.6 127,53.7 		"/>
		<polygon class="st25" points="114.5,25.2 127,36.6 110.3,48 		"/>
		<polygon class="st26" points="114.5,76.4 114.5,70.7 127,76.4 		"/>
		<polygon class="st27" points="114.5,70.7 122.8,65.1 127,76.4 		"/>
		<g>
			<path class="st28" d="M101.9,93.5l5.2,14.1c1.2,1.1,2.5,2.1,3.8,3.1l3.6-34.2L101.9,93.5z"/>
		</g>
		<polygon class="st29" points="122.8,65.1 135.4,65.1 127,76.4 		"/>
		<polygon class="st30" points="127,76.4 135.4,65.1 131.2,76.4 		"/>
		<polygon class="st31" points="122.8,65.1 122.8,59.4 135.4,65.1 		"/>
		<polygon class="st32" points="122.8,59.4 127,53.7 135.4,65.1 		"/>
		<g>
			<path class="st33" d="M127,36.6l-8.9-16.1c-1.2,0.6-2.5,1.3-3.7,2.1v2.7L127,36.6z"/>
			<path class="st34" d="M114.5,76.4l-3.6,34.2c0.4,0.3,0.9,0.7,1.3,1L127,76.4H114.5z"/>
			<path class="st35" d="M139.6,19.6l-12.2-2.8c-3.2,1-6.3,2.2-9.2,3.7l8.9,16.1L139.6,19.6z"/>
			<path class="st36" d="M139.6,14.7c-4.2,0.2-8.3,1-12.2,2.1l12.2,2.8V14.7z"/>
		</g>
		<polygon class="st37" points="127,36.6 139.6,42.3 127,53.7 		"/>
		<polygon class="st38" points="131.2,76.4 135.4,65.1 143.7,76.4 		"/>
		<polygon class="st39" points="127,36.6 139.6,19.6 139.6,42.3 		"/>
		<polygon class="st40" points="127,53.7 139.6,42.3 135.4,65.1 		"/>
		<g>
			<path class="st41" d="M144.3,121.1c1.2,0,2.4-0.1,3.6-0.2v-4.6L144.3,121.1z"/>
			<path class="st42" d="M120.2,116.2c6.7,3.1,14.2,4.8,22,4.9c0.7,0,1.4,0,2.1,0l3.6-4.9H120.2z"/>
			<path class="st43" d="M127,76.4l-14.8,35.2c2.5,1.8,5.2,3.3,8,4.6h27.7L127,76.4z"/>
		</g>
		<polygon class="st44" points="127,76.4 131.2,76.4 147.9,116.2 		"/>
		<g>
			<path class="st45" d="M139.6,19.6l10-4.5c-2.2-0.3-4.4-0.4-6.6-0.5c-1.2,0-2.3,0-3.4,0.1V19.6z"/>
		</g>
		<polygon class="st46" points="131.2,76.4 143.7,76.4 147.9,116.2 		"/>
		<polygon class="st47" points="139.6,42.3 139.6,19.6 147.9,42.3 		"/>
		<polygon class="st48" points="139.6,42.3 147.9,42.3 135.4,65.1 		"/>
		<polygon class="st49" points="143.7,76.4 156.3,59.4 156.3,76.4 		"/>
		<polygon class="st50" points="135.4,65.1 156.3,59.4 143.7,76.4 		"/>
		<polygon class="st51" points="147.9,42.3 156.3,59.4 135.4,65.1 		"/>
		<polygon class="st52" points="147.9,42.3 156.3,48 156.3,59.4 		"/>
		<polygon class="st53" points="143.7,76.4 156.3,76.4 152.1,82.1 		"/>
		<polygon class="st54" points="152.1,82.1 156.3,76.4 156.3,82.1 		"/>
		<polygon class="st55" points="152.1,82.1 156.3,82.1 156.3,93.5 		"/>
		<polygon class="st56" points="143.7,76.4 156.3,93.5 147.9,116.2 		"/>
		<polygon class="st57" points="143.7,76.4 152.1,82.1 156.3,93.5 		"/>
		<g>
			<path class="st58" d="M147.9,120.9c1.9-0.2,3.8-0.5,5.6-0.8l-5.6-3.8V120.9z"/>
			<path class="st59" d="M147.9,42.3l4-26.9c-0.8-0.1-1.5-0.3-2.3-0.4l-10,4.5L147.9,42.3z"/>
		</g>
		<polygon class="st60" points="156.3,59.4 164.7,65.1 156.3,76.4 		"/>
		<g>
			<path class="st61" d="M147.9,116.2l5.6,3.8c0.9-0.2,1.9-0.4,2.8-0.7V93.5L147.9,116.2z"/>
		</g>
		<polygon class="st62" points="156.3,82.1 168.8,76.4 168.8,93.5 		"/>
		<polygon class="st63" points="156.3,76.4 168.8,76.4 156.3,82.1 		"/>
		<polygon class="st64" points="156.3,76.4 164.7,65.1 168.8,76.4 		"/>
		<polygon class="st65" points="164.7,65.1 168.8,70.7 168.8,76.4 		"/>
		<polygon class="st66" points="156.3,93.5 156.3,82.1 168.8,93.5 		"/>
		<g>
			<path class="st67" d="M168.8,42.3l-15.7-26.7c-0.3-0.1-0.5-0.1-0.8-0.2l4,32.6L168.8,42.3z"/>
		</g>
		<polygon class="st68" points="156.3,59.4 156.3,48 164.7,65.1 		"/>
		<g>
			<path class="st69" d="M156.3,48l-4-32.6c-0.1,0-0.3,0-0.4-0.1l-4,26.9L156.3,48z"/>
		</g>
		<polygon class="st70" points="164.7,65.1 173,59.4 168.8,70.7 		"/>
		<polygon class="st71" points="168.8,42.3 173,59.4 164.7,65.1 		"/>
		<g>
			<path class="st72" d="M156.3,93.5v25.9c0.4-0.1,0.9-0.2,1.3-0.4l11.3-25.5H156.3z"/>
		</g>
		<polygon class="st73" points="156.3,48 168.8,42.3 164.7,65.1 		"/>
		<g>
			<path class="st74" d="M166.1,20c-4.1-2-8.4-3.5-13-4.4l15.7,26.7L166.1,20z"/>
		</g>
		<polygon class="st75" points="168.8,42.3 177.2,42.3 173,59.4 		"/>
		<polygon class="st76" points="168.8,76.4 177.2,82.1 168.8,93.5 		"/>
		<polygon class="st77" points="168.8,76.4 168.8,70.7 177.2,82.1 		"/>
		<g>
			<path class="st78" d="M157.6,119c1.9-0.5,3.7-1.2,5.5-1.9l5.8-23.6L157.6,119z"/>
			<path class="st79" d="M177.2,42.3l-7.5-20.4c-1.2-0.7-2.4-1.3-3.6-1.9l2.7,22.3H177.2z"/>
		</g>
		<polygon class="st80" points="168.8,70.7 173,59.4 177.2,82.1 		"/>
		<g>
			<path class="st81" d="M163.1,117.1c5.4-2.2,10.3-5.3,14.7-9.1l-8.9-14.5L163.1,117.1z"/>
			<path class="st82" d="M168.8,93.5h20.6c0.4-0.7,0.8-1.5,1.2-2.3l-13.4-9.1L168.8,93.5z"/>
			<path class="st83" d="M177.7,108c4.7-4.1,8.7-9,11.7-14.5h-20.6L177.7,108z"/>
			<path class="st84" d="M184.5,34.8c-4.1-5.2-9.1-9.6-14.8-12.9l7.5,20.4L184.5,34.8z"/>
			<path class="st85" d="M177.2,82.1l13.4,9.1c0.3-0.6,0.6-1.2,0.8-1.8L173,59.4L177.2,82.1z"/>
			<path class="st86" d="M188.5,40.6c-1.2-2-2.5-3.9-4-5.8l-7.3,7.5L188.5,40.6z"/>
			<path class="st87" d="M192.1,87.9c2.5-6.1,3.9-12.7,3.9-19.7c0.1-10.1-2.7-19.5-7.5-27.6l-11.3,1.7L192.1,87.9z"/>
			<path class="st88" d="M173,59.4l18.4,30.1c0.2-0.5,0.4-1,0.7-1.5l-14.9-45.6L173,59.4z"/>
			<path class="st89" d="M20.5,95.2c-0.1,0-0.2,0-0.3,0c-2.6-0.2-4.2,1.9-4.2,4h6.4L20.5,95.2z"/>
			<path class="st90" d="M16,99.2c0,1.2,0.6,2.5,1.9,3.3l3.2,2l1.3-5.2H16z"/>
			<path class="st91" d="M23.8,95.4c-1.2-0.1-2.3-0.2-3.4-0.2l2,4L23.8,95.4z"/>
		</g>
		<polygon class="st92" points="21.1,104.4 22.4,99.2 30.8,104.9 27.2,108.1 		"/>
		<g>
			<path class="st93" d="M30.8,104.9l-2.2-9.1c-1.6-0.1-3.2-0.3-4.7-0.4l-1.4,3.8L30.8,104.9z"/>
			<path class="st94" d="M30.8,96c-0.8-0.1-1.5-0.1-2.2-0.2l2.2,9.1V96z"/>
			<path class="st95" d="M39.1,99.2l-1.9-2.5c-2.2-0.3-4.4-0.5-6.5-0.7v8.9L39.1,99.2z"/>
		</g>
		<polygon class="st96" points="30.8,104.9 39.1,99.2 43.3,110.6 		"/>
		<g>
			<path class="st97" d="M40.7,97c-1.2-0.1-2.3-0.3-3.4-0.4l1.9,2.5L40.7,97z"/>
		</g>
		<polygon class="st98" points="27.2,108.1 30.8,104.9 43.3,110.6 34.5,112.6 		"/>
		<polygon class="st99" points="34.5,112.5 43.3,110.6 43.3,117.9 		"/>
		<g>
			<path class="st100" d="M43.3,110.6V97.4c-0.9-0.1-1.8-0.2-2.6-0.3l-1.6,2.1L43.3,110.6z"/>
		</g>
		<polygon class="st101" points="43.3,117.9 43.3,110.6 55.9,121.9 54.4,124.6 		"/>
		<g>
			<path class="st102" d="M50.1,98.4c-2.3-0.4-4.5-0.7-6.7-1v13.2L50.1,98.4z"/>
			<path class="st103" d="M55.9,121.9V99.3c-2-0.4-3.9-0.7-5.8-1l-6.7,12.2L55.9,121.9z"/>
		</g>
		<polygon class="st104" points="54.4,124.6 55.9,121.9 56.8,126.1 		"/>
		<polygon class="st105" points="56.8,126.1 55.9,121.9 72.6,121.9 70,134.2 		"/>
		<g>
			<path class="st106" d="M72.6,121.9l-10.5-21.4c-2.1-0.4-4.2-0.8-6.2-1.2v22.6H72.6z"/>
			<path class="st107" d="M80.8,105.2c-6.2-1.9-12.5-3.4-18.7-4.6l10.5,21.4L80.8,105.2z"/>
		</g>
		<polygon class="st108" points="70.1,134.2 72.6,121.9 77.6,138.7 		"/>
		<g>
			<path class="st109" d="M85.2,110.6l-3.9-5.2c-0.2,0-0.3-0.1-0.5-0.1l-8.2,16.8L85.2,110.6z"/>
		</g>
		<polygon class="st110" points="77.6,138.7 72.6,121.9 89.4,121.9 83.4,142.3 		"/>
		<polygon class="st111" points="72.6,121.9 85.2,110.6 89.4,121.9 		"/>
		<g>
			<path class="st112" d="M93.5,110.6l-0.6-1.3c-2.5-1-5.1-1.9-7.7-2.7v4H93.5z"/>
		</g>
		<polygon class="st113" points="85.2,110.6 93.5,110.6 93.5,116.2 		"/>
		<polygon class="st114" points="85.2,110.6 93.5,116.2 89.4,121.9 		"/>
		<g>
			<path class="st93" d="M85.2,106.5c-1.3-0.4-2.6-0.8-3.9-1.2l3.9,5.2V106.5z"/>
			<path class="st115" d="M94.1,109.7c-0.4-0.2-0.8-0.3-1.2-0.5l0.6,1.3L94.1,109.7z"/>
		</g>
		<polygon class="st116" points="89.4,121.9 93.5,116.2 101.9,121.9 		"/>
		<polygon class="st117" points="83.4,142.3 89.4,121.9 106.1,127.6 87.3,144.6 		"/>
		<polygon class="st118" points="89.4,121.9 101.9,121.9 106.1,127.6 		"/>
		<polygon class="st119" points="93.5,116.2 93.5,110.6 101.9,121.9 		"/>
		<g>
			<path class="st120" d="M101.9,121.9l-2.4-9.9c-1.8-0.8-3.5-1.5-5.3-2.2l-0.6,0.8L101.9,121.9z"/>
			<path class="st121" d="M106.1,127.6l3.8-10.4c-0.2-0.1-0.4-0.2-0.6-0.4l-7.4,5L106.1,127.6z"/>
			<path class="st122" d="M109.3,116.9c-3.1-1.8-6.4-3.4-9.8-4.9l2.4,9.9L109.3,116.9z"/>
			<path class="st123" d="M96.7,150.4l3.1,1.9c0.7,0.4,1.2,1,1.5,1.7l0.2,0.4l8.8-4H96.7z"/>
		</g>
		<polygon class="st124" points="96.7,150.4 87.3,144.6 106.1,127.6 110.3,150.4 		"/>
		<polygon class="st125" points="106.1,127.6 114.5,139 110.3,150.4 		"/>
		<polygon class="st126" points="109.3,171.1 114.5,173.1 111.7,176.2 		"/>
		<polygon class="st127" points="109.3,171.1 101.5,154.3 110.3,150.4 114.5,173.1 		"/>
		<polygon class="st128" points="111.7,176.2 114.5,173.1 122.8,184.5 117,187.5 		"/>
		<polygon class="st129" points="117,187.5 122.8,184.5 121.3,196.7 		"/>
		<g>
			<path class="st130" d="M114.5,139l-3.9-21.4c-0.2-0.1-0.4-0.2-0.6-0.4l-3.8,10.4L114.5,139z"/>
			<path class="st131" d="M122.8,139l-11.5-20.9c-0.3-0.2-0.5-0.3-0.8-0.4l3.9,21.4H122.8z"/>
		</g>
		<polygon class="st132" points="114.5,139 122.8,139 110.3,150.4 		"/>
		<polygon class="st133" points="110.3,150.4 122.8,139 114.5,173.1 		"/>
		<polygon class="st134" points="131.6,218.6 139.6,218.6 133.2,222.1 		"/>
		<g>
			<path class="st135" d="M133.2,222.1l4.1,8.8c0,0,0,0,0,0l2.3-12.3L133.2,222.1z"/>
			<path class="st136" d="M131.2,135.2c-5.2-6.8-12-12.4-19.9-17.1l11.5,20.9L131.2,135.2z"/>
		</g>
		<polygon class="st137" points="131.6,218.6 121.3,196.7 122.8,184.5 139.6,218.6 		"/>
		<g>
			<path class="st138" d="M137.3,230.9c0.8,1.7,2.5,2.4,4.2,2.2l5.6-7.6l0.7-1.4l-8.1-5.5L137.3,230.9z"/>
		</g>
		<polygon class="st139" points="114.5,173.1 122.8,139 122.8,184.5 		"/>
		<polygon class="st140" points="122.8,184.5 152.1,207.2 139.6,218.6 		"/>
		<polygon class="st141" points="122.8,184.5 152.1,184.5 152.1,207.2 		"/>
		<polygon class="st142" points="139.6,218.6 152.1,207.2 148.2,223 147.7,224.1 		"/>
		<g>
			<path class="st143" d="M153.5,133.3c-1.1,1.3-2.2,2.7-3.2,4.1l6,1.6L153.5,133.3z"/>
			<path class="st144" d="M156.3,130.3c-1,1-1.9,2-2.8,3l2.8,5.7V130.3z"/>
		</g>
		<polygon class="st145" points="152.1,184.5 156.3,190.2 152.1,207.2 		"/>
		<g>
			<path class="st146" d="M152.1,184.5l-9.6-29.5c-0.8,3.4-1.2,7.1-1.2,10.9c0.1-10.3-2.6-19.2-7.4-26.7l-11.1,45.3H152.1z"/>
			<path class="st147" d="M122.8,184.5l11.1-45.3c-0.9-1.4-1.8-2.7-2.8-4l-8.3,3.8V184.5z"/>
			<path class="st148" d="M144.4,230.9l2.6-5.4l-5.6,7.6C142.7,232.9,143.8,232.2,144.4,230.9"/>
		</g>
		<polygon class="st149" points="152.1,207.2 156.3,190.2 158.9,200.9 155.9,207.2 		"/>
		<polygon class="st150" points="152.1,184.5 156.3,178.8 160.5,184.5 		"/>
		<polygon class="st151" points="152.1,184.5 160.5,184.5 156.3,190.2 		"/>
		<g>
			<path class="st152" d="M160.5,127.6l-0.5-0.7c-1.3,1.1-2.5,2.2-3.7,3.4v8.7L160.5,127.6z"/>
			<path class="st153" d="M156.3,139l-6-1.6c-2.9,4.1-5.2,8.7-6.8,13.7l12.8,27.8V139z"/>
			<path class="st154" d="M156.3,178.8L143.5,151c-0.4,1.3-0.8,2.6-1,4l9.6,29.5L156.3,178.8z"/>
		</g>
		<polygon class="st155" points="156.3,190.2 160.5,184.5 163.2,192 162.2,194.2 		"/>
		<polygon class="st156" points="156.3,190.2 162.2,194.2 158.9,200.9 		"/>
		<polygon class="st157" points="152.1,207.2 155.9,207.2 148.2,223 		"/>
		<polygon class="st158" points="156.3,139 160.5,127.6 168.8,139 		"/>
		<polygon class="st159" points="156.3,139 168.8,139 164.7,144.7 		"/>
		<polygon class="st160" points="156.3,139 164.7,144.7 156.3,178.8 		"/>
		<polygon class="st161" points="164.7,144.7 173,156 156.3,178.8 		"/>
		<polygon class="st162" points="160.5,184.5 168.2,181.9 163.2,192 		"/>
		<polygon class="st163" points="156.3,178.8 169.6,178.8 168.1,181.9 160.5,184.5 		"/>
		<polygon class="st164" points="156.3,178.8 173,156.1 175.1,167.5 169.6,178.8 		"/>
		<polygon class="st165" points="164.7,144.7 168.8,139 173,156 		"/>
		<polygon class="st166" points="173,156 177.2,156 177.2,163.2 175.1,167.5 		"/>
		<polygon class="st167" points="173,156 168.8,139 177.2,156 		"/>
		<g>
			<path class="st78" d="M160.8,126.1c-0.3,0.3-0.6,0.5-0.9,0.8l0.5,0.7L160.8,126.1z"/>
		</g>
		<polygon class="st168" points="168.8,139 189.8,144.7 177.2,156 		"/>
		<polygon class="st169" points="168.8,139 189.8,127.6 189.8,144.7 		"/>
		<polygon class="st170" points="160.5,127.6 189.8,127.6 168.8,139 		"/>
		<g>
			<path class="st81" d="M189.8,127.6l-8.5-13.9c-7.5,3.4-14.5,7.5-20.4,12.5l-0.4,1.5H189.8z"/>
			<path class="st83" d="M192,109.3c-3.7,1.3-7.3,2.8-10.8,4.4l8.5,13.9L192,109.3z"/>
			<path class="st171" d="M198.1,116.2l-1.6-8.5c-1.5,0.5-3.1,1-4.6,1.6l-2.2,18.3L198.1,116.2z"/>
		</g>
		<polygon class="st172" points="189.8,127.6 198.1,139 189.8,144.7 		"/>
		<polygon class="st173" points="198.1,116.2 206.5,121.9 198.1,139 		"/>
		<polygon class="st174" points="189.8,127.6 198.1,116.2 198.1,139 		"/>
		<g>
			<path class="st175" d="M177.2,156v7.1l4.2-8.7c0.3-0.7,0.9-1.3,1.5-1.7l4.9-2.9l1.9-5.2L177.2,156z"/>
		</g>
		<polygon class="st176" points="189.8,144.7 198.1,139 200.6,142.4 193.4,146.6 		"/>
		<polygon class="st177" points="189.8,144.7 193.4,146.6 187.8,149.9 		"/>
		<g>
			<path class="st178" d="M219.1,116.2V102c-1.4,0.3-2.8,0.6-4.1,0.9l-8.4,19L219.1,116.2z"/>
			<path class="st179" d="M209.2,104.2c-4.2,1-8.5,2.2-12.6,3.6l1.6,8.5L209.2,104.2z"/>
			<path class="st180" d="M206.5,121.9l8.4-19c-1.9,0.4-3.8,0.9-5.7,1.3l-11.1,12L206.5,121.9z"/>
		</g>
		<polygon class="st181" points="198.1,139 206.5,121.9 215.2,133.8 206.3,139 		"/>
		<polygon class="st182" points="198.1,139 206.3,139 200.6,142.4 		"/>
		<polygon class="st183" points="206.5,121.9 219.1,116.2 219.1,131.5 215.2,133.8 		"/>
		<g>
			<path class="st184" d="M231.6,104.9l-4.7-4.3c-2.6,0.4-5.2,0.9-7.8,1.4v14.2L231.6,104.9z"/>
		</g>
		<polygon class="st185" points="219.1,116.2 223.7,128.8 219.1,131.5 		"/>
		<polygon class="st186" points="219.1,116.2 235.5,121.8 223.7,128.8 		"/>
		<polygon class="st187" points="219.1,116.2 235.8,116.2 235.8,121.6 235.5,121.8 		"/>
		<polygon class="st188" points="219.1,116.2 231.6,104.9 235.8,116.2 		"/>
		<g>
			<path class="st189" d="M230.7,100c-1.3,0.2-2.5,0.4-3.8,0.6l4.7,4.3L230.7,100z"/>
			<path class="st190" d="M235.7,99.3c-1.7,0.2-3.3,0.5-5,0.7l0.9,4.9L235.7,99.3z"/>
			<path class="st191" d="M235.8,116.2l3.2-17.4c-1.1,0.1-2.2,0.3-3.3,0.4l-4.1,5.6L235.8,116.2z"/>
			<path class="st192" d="M244.6,98.2l11.3,11.6l0.3-0.2l-6.6-11.9C248,97.8,246.3,98,244.6,98.2"/>
			<path class="st193" d="M239,98.8l-3.2,17.4l16.9-4.6l3.2-1.9l-11.3-11.6C242.8,98.4,240.9,98.6,239,98.8"/>
		</g>
		<polygon class="st194" points="235.8,116.2 252.7,111.6 242,117.9 		"/>
		<polygon class="st195" points="235.8,116.2 242,117.9 235.8,121.6 		"/>
		<g>
			<path class="st196" d="M257.8,97.1c-2.6,0.2-5.3,0.4-8.2,0.6l6.6,11.9l1.1-0.7l3.6-9.7L257.8,97.1z"/>
			<path class="st197" d="M261.4,96.9c-1.1,0.1-2.3,0.1-3.6,0.2l3.1,2.1L261.4,96.9z"/>
			<path class="st198" d="M257.3,108.9l8.2-4.8c1.9-1.1,2.3-3.2,1.6-4.9h-6.2L257.3,108.9z"/>
			<path class="st199" d="M263.3,96.8c-0.6,0-1.3,0.1-1.9,0.1l-0.5,2.3h6.2C266.5,97.8,265.2,96.7,263.3,96.8"/>
		</g>
	</g>
</g>
</svg>
