<svg id="Lag_1" data-name="Lag 1" xmlns="http://www.w3.org/2000/svg" viewBox="0 0 683 237"><defs><style>.cls-1{fill:#333;}.cls-2{fill:#eddb8d;}.cls-3{fill:#2bbcd5;}.cls-4{fill:#2d469c;}.cls-5{fill:#4e51a2;}.cls-6{fill:#bfda83;}.cls-7{fill:#ee3b31;}.cls-8{fill:#42b549;}.cls-9{fill:#d33b94;}.cls-10{fill:#4fa346;}.cls-11{fill:#224fa1;}.cls-12{fill:#6ebd44;}.cls-13{fill:#8c8e32;}.cls-14{fill:#487a6a;}.cls-15{fill:#113e1f;}.cls-16{fill:#ebe739;}.cls-17{fill:#4d464f;}.cls-18{fill:#33b780;}.cls-19{fill:#456fb5;}.cls-20{fill:#3053a4;}.cls-21{fill:#ed2e4a;}.cls-22{fill:#db6633;}.cls-23{fill:#bfc633;}.cls-24{fill:#4e2c7b;}.cls-25{fill:#158d48;}.cls-26{fill:#87abb1;}.cls-27{fill:#3b5fab;}.cls-28{fill:#95c83d;}.cls-29{fill:#3560ab;}.cls-30{fill:#72be44;}.cls-31{fill:#227074;}.cls-32{fill:#f5de30;}.cls-33{fill:#76b4cf;}.cls-34{fill:#7980be;}.cls-35{fill:#a65fa5;}.cls-36{fill:#df6e61;}.cls-37{fill:#941839;}.cls-38{fill:#81c56f;}.cls-39{fill:#be4427;}.cls-40{fill:#4257a6;}.cls-41{fill:#c85827;}.cls-42{fill:#aca335;}.cls-43{fill:#fce42f;}.cls-44{fill:#7797c2;}.cls-45{fill:#4b2e88;}.cls-46{fill:#69cadf;}.cls-47{fill:#5a61a7;}.cls-48{fill:#53c0af;}.cls-49{fill:#5986ba;}.cls-50{fill:#746aaf;}.cls-51{fill:#577e45;}.cls-52{fill:#32b34a;}.cls-53{fill:#58c2b3;}.cls-54{fill:#24568a;}.cls-55{fill:#c483b8;}.cls-56{fill:#86c774;}.cls-57{fill:#8565ab;}.cls-58{fill:#885fa7;}.cls-59{fill:#41986e;}.cls-60{fill:#601025;}.cls-61{fill:#6d9794;}.cls-62{fill:#61bf85;}.cls-63{fill:#7e7f86;}.cls-64{fill:#2db461;}.cls-65{fill:#8599b0;}.cls-66{fill:#888130;}.cls-67{fill:#2fa559;}.cls-68{fill:#e18e74;}.cls-69{fill:#3d5265;}.cls-70{fill:#2b5ea5;}.cls-71{fill:#6eb59f;}.cls-72{fill:#33733f;}.cls-73{fill:#223d45;}.cls-74{fill:#c4aabe;}.cls-75{fill:#402f88;}.cls-76{fill:#8b8185;}.cls-77{fill:#f7dea0;}.cls-78{fill:#474a1c;}.cls-79{fill:#5dbd7b;}.cls-80{fill:#5a85c3;}.cls-81{fill:#928ea8;}.cls-82{fill:#ed282a;}.cls-83{fill:#5b3895;}.cls-84{fill:#3bb66c;}.cls-85{fill:#d48d32;}.cls-86{fill:#000f28;}.cls-87{fill:#47769c;}.cls-88{fill:#42c2d6;}.cls-89{fill:#83479b;}.cls-90{fill:#5bb947;}.cls-91{fill:#6c3123;}.cls-92{fill:#293474;}.cls-93{fill:#a6ce42;}.cls-94{fill:#74c27e;}.cls-95{fill:#158a80;}.cls-96{fill:#63bb46;}.cls-97{fill:#375c2b;}.cls-98{fill:#4159a7;}.cls-99{fill:#6f3995;}.cls-100{fill:#dca9cd;}.cls-101{fill:#6d9077;}.cls-102{fill:#6fbd44;}.cls-103{fill:#1e2719;}.cls-104{fill:#2eb468;}.cls-105{fill:#5dbb67;}.cls-106{fill:#4a1c11;}.cls-107{fill:#69be68;}.cls-108{fill:#2ab99d;}.cls-109{fill:#49b649;}.cls-110{fill:#7d277e;}.cls-111{fill:#797cba;}.cls-112{fill:#4cbcb9;}.cls-113{fill:#c370ac;}.cls-114{fill:#4d2112;}.cls-115{fill:#d3abd0;}.cls-116{fill:#a88452;}.cls-117{fill:#7a93cb;}.cls-118{fill:#8c7453;}.cls-119{fill:#c08278;}.cls-120{fill:#7e6468;}.cls-121{fill:#65c7ca;}.cls-122{fill:#a7dcde;}.cls-123{fill:#c8d288;}.cls-124{fill:#ed332a;}.cls-125{fill:#68c4aa;}.cls-126{fill:#c674a5;}.cls-127{fill:#5c479c;}.cls-128{fill:#6ec8c0;}.cls-129{fill:#af499a;}.cls-130{fill:#e09871;}.cls-131{fill:#37b34a;}.cls-132{fill:#3a5aa7;}.cls-133{fill:#2b50a2;}.cls-134{fill:#ece738;}.cls-135{fill:#7cc142;}.cls-136{fill:#28b897;}.cls-137{fill:#321c33;}.cls-138{fill:#ed2a2d;}.cls-139{fill:#3258a7;}.cls-140{fill:#acd268;}.cls-141{fill:#5eba47;}.cls-142{fill:#8064aa;}.cls-143{fill:#c84396;}.cls-144{fill:#8052a0;}.cls-145{fill:#49215d;}.cls-146{fill:#ef4d51;}.cls-147{fill:#83c562;}.cls-148{fill:#e3eba6;}.cls-149{fill:#824d9d;}.cls-150{fill:#58c7dd;}.cls-151{fill:#d7e15a;}.cls-152{fill:#b78558;}.cls-153{fill:#8a669d;}.cls-154{fill:#4888c7;}.cls-155{fill:#6e4399;}.cls-156{fill:#a18127;}.cls-157{fill:#de4b9a;}.cls-158{fill:#29a097;}.cls-159{fill:#38395f;}.cls-160{fill:#7d495b;}.cls-161{fill:#b7d778;}.cls-162{fill:#299ed4;}.cls-163{fill:#de1b49;}.cls-164{fill:#5fbf92;}.cls-165{fill:#91b86c;}.cls-166{fill:#b97a29;}.cls-167{fill:#ed2d76;}.cls-168{fill:#25aa4a;}.cls-169{fill:#777747;}.cls-170{fill:#3854a4;}.cls-171{fill:#37c4ec;}.cls-172{fill:#9acc72;}.cls-173{fill:#3269b2;}.cls-174{fill:#bf202e;}.cls-175{fill:#4652a2;}.cls-176{fill:#4dbb8d;}.cls-177{fill:#6abe65;}.cls-178{fill:#714b92;}.cls-179{fill:#60c19e;}.cls-180{fill:#9bd2ad;}.cls-181{fill:#8a5f63;}.cls-182{fill:#5489b0;}.cls-183{fill:#d0b0d3;}.cls-184{fill:#d41b50;}.cls-185{fill:#199ba4;}.cls-186{fill:#7f525a;}.cls-187{fill:#8c6f23;}.cls-188{fill:#4a4c9f;}.cls-189{fill:#65be76;}.cls-190{fill:#4653a3;}.cls-191{fill:#ab4624;}.cls-192{fill:#8897ad;}.cls-193{fill:#44b65f;}.cls-194{fill:#ba1777;}.cls-195{fill:#639bb7;}.cls-196{fill:#417668;}.cls-197{fill:#b1d240;}.cls-198{fill:#89519f;}.cls-199{fill:#564ea0;}.cls-200{fill:#3c469c;}</style></defs><title>Tegnebræt 1</title><path class="cls-1" d="M336.67,30.34V168.77h-7.38c-4.7,0-6.26-3.58-6.26-7.83V30.78c0-7.6-9.17-7.16-9.17.22V65.67h8.72l-8.72,14.09v89H306c-4.7,0-5.82-3.58-5.82-7.83V31c0-4.92,1.57-18.79,18.12-18.79,15.21,0,18.34,10.29,18.34,18.11"/><path class="cls-1" d="M368,104.59c0-7.38-1.57-7.83-3.8-9.62l-5.59-3.8v59.71c0,5.82,9.39,5.82,9.39,0Zm13.42,46.3c0,7.83-2,17.89-18.34,17.89-15.65,0-18.11-11.63-18.11-18.12V40.4c6.48,0,13.64,0,13.64,12.52V69.25c0,6,4.92,7.83,12.52,13.42,7.83,5.82,10.29,8.72,10.29,14.54Z"/><path class="cls-1" d="M426.12,88.71V90.5c0,11.63-11,11.86-13.42,11.86V88.71c0-5.82-9.39-5.82-9.39,0v72c0,4.47-1.12,8.05-6,8.05h-7.6V88.93c0-6.49,2.46-18.12,18.11-18.12,16.33,0,18.34,10.06,18.34,17.89"/><path class="cls-1" d="M444.24,150.88c0,5.81,9.39,5.81,9.39,0V120.69l-5.37,3.8c-2.46,1.79-4,2.24-4,9.62Zm22.81-.23c0,6.49-2.24,18.12-17.89,18.12-16.33,0-18.34-10.06-18.34-17.89V126.5c0-5.59,2.46-8.95,10.29-14.31,8.05-5.59,12.52-7.38,12.52-13.42V89.6c0-7.38-9.39-7.61-9.39,0v6c0,8-13.42,8.5-13.42,8.5V89.6s0-18.79,18.12-18.79c12.52,0,18.11,6.71,18.11,18.79Z"/><path class="cls-1" d="M512.22,168.77h-7.38c-4.7,0-6-3.58-6-8.05V104.59c0-7.38-1.57-7.83-3.8-9.62l-5.59-3.8v77.6h-7.6c-4.7,0-6-3.58-6-8.05V31.23c7.38,0,13.64-.45,13.64,13.2V69.25c0,6,4.7,7.83,12.52,13.42,8.05,5.81,10.29,8.72,10.29,14.54"/><path class="cls-1" d="M533.69,150.88c0,5.81,9.39,5.81,9.39,0V120.69l-5.37,3.8c-2.46,1.79-4,2.24-4,9.62Zm22.81-.23c0,6.49-2.23,18.12-17.89,18.12-16.33,0-18.34-10.06-18.34-17.89V126.5c0-5.59,2.46-8.95,10.29-14.31,8.05-5.59,12.52-7.38,12.52-13.42V89.6c0-7.38-9.39-7.61-9.39,0v6c0,8-13.42,8.5-13.42,8.5V89.6s0-18.79,18.11-18.79c12.52,0,18.11,6.71,18.11,18.79Z"/><path class="cls-1" d="M624.93,89.6v79.17h-7.6c-4.7,0-6-3.58-6-8.05V89.83a4.71,4.71,0,1,0-9.39,0v78.95h-7.6c-4.7,0-6-3.58-6-8.05V89.83a4.71,4.71,0,1,0-9.39,0v78.95h-7.6c-4.92,0-6-3.58-6-8.05V89.83c0-6.71,1.57-19,18.34-19a20.59,20.59,0,0,1,11.63,3.13,20.35,20.35,0,0,1,11.4-3.13c16.55,0,18.34,12.3,18.34,18.79"/><path class="cls-1" d="M651.77,12c18.12,0,18.12,18.56,18.12,18.56V75.29s-13.42.22-13.42-8.72V30.78c0-7.38-9.17-7.38-9.17,0V70.37c0,6,4,8.5,12.3,13.42,8.27,4.7,10.29,8.72,10.29,14.09V151.1c0,7.83-2,17.67-18.12,17.67-15.66,0-18.12-11.4-18.12-17.89v-49s13.64,0,13.64,8.5v40.7c0,5.82,9.17,5.82,9.17,0V105.26c0-7.16-1.57-7.6-3.8-9.39l-13.42-8.95c-6.49-4.48-5.59-14.31-5.59-14.31V30.78S633.87,12,651.77,12"/><path class="cls-1" d="M669.88,185.54h-5.47V206a14.24,14.24,0,0,0,.36,2.71l-9-23.17h-4.92v37.57h5.47V202.18a14.22,14.22,0,0,0-.36-2.71l9,23.65h4.92Zm-28.67,20.55a11.6,11.6,0,0,0,3.65-.36q1.61-.7,1.61-3.07V189q0-3.46-3.38-3.46H628.18v37.57h5.62V190.37h7.08v11.91h-5.52v3.38l6.19,17.45h5.86Zm-30.88-15.73H618v27.92h-7.71ZM623.66,189a3.12,3.12,0,0,0-1.34-2.91l1.13-3.94v-.29h-5.74l-1,3.67h-8.62q-3.34,0-3.34,3.46v30.68a3.16,3.16,0,0,0,1.54,3l-1.08,3.77v.31h5.69l1-3.7h8.35q3.41,0,3.41-3.43Zm-36.18,29.39V205.86h4.42l2.76,1.83v10.71Zm4.32-17.1h-4.32v-11h7v9.1Zm8.5,7.23a3.9,3.9,0,0,0-1.3-3.1q-.17-.17-3-1.92,2.76-1.7,2.93-1.85a3.76,3.76,0,0,0,1.2-3V189q0-3.46-3.34-3.46H581.87v37.57h15q3.44,0,3.43-3.43Zm-32.41,9.63h-10V206.36h8.45v-4.87h-8.45v-11h9.82v-5H552.31v37.57h15.58Zm-18.44-32.6h-18v5h6.2v32.6h5.59v-32.6h6.19ZM528.64,203h-9.82v4.78H523v10.52h-7.32V190.37H523V197h5.64v-8q0-3.46-3.43-3.46H513.46q-3.41,0-3.41,3.46v30.68q0,3.44,3.34,3.43H525.2q3.43,0,3.43-3.43Zm-34.72,8.16,2.76-17,2.74,17Zm5.76-25.67h-5.91L486.5,223v.1H492l1.13-7.13h7l1.13,7.13h5.57Zm-21.44,20.6a11.59,11.59,0,0,0,3.65-.36q1.61-.7,1.61-3.07V189q0-3.46-3.39-3.46H465.21v37.57h5.62V190.37h7.08v11.91h-5.52v3.38l6.2,17.45h5.86ZM448,218.39V205.86h4.42l2.76,1.83v10.71Zm4.32-17.1H448v-11h7v9.1Zm8.5,7.23a3.9,3.9,0,0,0-1.3-3.1q-.17-.17-3-1.92,2.76-1.7,2.93-1.85a3.76,3.76,0,0,0,1.2-3V189q0-3.46-3.34-3.46H442.35v37.57h15q3.44,0,3.43-3.43Zm-23-23h-5.47V206a14.24,14.24,0,0,0,.36,2.71l-9-23.17H418.8v37.57h5.47V202.18a14.22,14.22,0,0,0-.36-2.71l9,23.65h4.92ZM415,218.15H405V206.36h8.45v-4.87H405v-11h9.82v-5H399.38v37.57H415Zm-20.07-32.6h-5.31l-5.9,20.77a14.17,14.17,0,0,0-.15,1.7,10.07,10.07,0,0,0-.14-1.7l-5.91-20.77h-5.31v37.57h5.4V204.58a35.46,35.46,0,0,0-.34-4.08l4.87,19.18H385l4.85-19.18a33.9,33.9,0,0,0-.34,4.08v18.53h5.4Zm-27.2,0h-5.31l-5.91,20.77a14.06,14.06,0,0,0-.14,1.7,10,10,0,0,0-.15-1.7l-5.91-20.77H345v37.57h5.4V204.58a34.94,34.94,0,0,0-.34-4.08l4.87,19.18h2.86l4.85-19.18a33.9,33.9,0,0,0-.34,4.08v18.53h5.4Zm-38.85,25.62,2.76-17,2.74,17Zm5.76-25.67h-5.91L321.42,223v.1H327l1.13-7.13h7l1.13,7.13h5.57Zm-16.28,25.23a4,4,0,0,0-1.22-3l-11.26-10.61v-6.8h6.87v7.08h5.62V189q0-3.41-3.41-3.41H303.6q-3.38,0-3.38,3.46v8.35a4,4,0,0,0,1.22,3L312.7,211v7.37h-6.87v-7.66h-5.62v9q0,3.44,3.38,3.43h11.31q3.41,0,3.41-3.43Z"/><polygon class="cls-2" points="85.33 61.05 85.33 61.04 85.36 61.05 85.33 61.05"/><path class="cls-3" d="M85.33,61.05v.08l0-.08Z"/><path class="cls-4" d="M85.33,61.13s0,.07,0,.1l0-.18Z"/><path class="cls-5" d="M85.33,61v0h0Z"/><path class="cls-6" d="M90.54,87q.61,1.27,1.29,2.5h6.07Z"/><path class="cls-7" d="M91.83,89.49a53.44,53.44,0,0,0,3.86,6l2.21-6Z"/><path class="cls-8" d="M85.35,61.05l0,.18c0,.75-.06,1.51-.07,2.27a53.14,53.14,0,0,0,2.56,16.7l14.27-7.76Z"/><path class="cls-9" d="M102.09,72.43,87.82,80.19A52.68,52.68,0,0,0,90.54,87l7.37,2.5Z"/><path class="cls-10" d="M102.09,49.68,98.28,29q-1.06,1.22-2,2.51L85.35,61.05Z"/><path class="cls-11" d="M96.23,31.48A53,53,0,0,0,85.33,61l0,0Z"/><path class="cls-12" d="M106.27,44,98.68,28.51l-.4.46,3.81,20.71Z"/><polygon class="cls-13" points="85.36 61.05 102.09 49.68 102.09 72.43 85.36 61.05"/><path class="cls-14" d="M110.46,18.59q-.87.54-1.71,1.11l1.71,1.55Z"/><polygon class="cls-15" points="102.09 72.43 110.46 66.74 110.46 72.43 102.09 72.43"/><path class="cls-16" d="M108.75,19.7A53.64,53.64,0,0,0,102,25.06l8.42-3.82Z"/><polygon class="cls-17" points="102.09 49.68 110.46 66.74 102.09 72.43 102.09 49.68"/><path class="cls-18" d="M95.69,95.51a53.75,53.75,0,0,0,7.41,8.1L97.91,89.49Z"/><polygon class="cls-19" points="102.09 72.43 110.46 72.43 97.91 89.49 102.09 72.43"/><path class="cls-20" d="M110.46,21.24,102,25.06q-1.75,1.65-3.35,3.45L106.27,44Z"/><polygon class="cls-21" points="118.82 55.37 118.82 61.05 110.46 66.74 118.82 55.37"/><polygon class="cls-22" points="102.09 49.68 106.27 43.99 118.83 55.37 102.09 49.68"/><polygon class="cls-23" points="102.09 49.68 118.83 55.37 110.46 66.74 102.09 49.68"/><polygon class="cls-24" points="106.27 43.99 123.01 49.68 118.83 55.37 106.27 43.99"/><polygon class="cls-25" points="106.27 43.99 123.01 32.62 123.01 49.68 106.27 43.99"/><polygon class="cls-26" points="110.46 21.25 123.01 32.62 106.27 43.99 110.46 21.25"/><polygon class="cls-27" points="110.46 72.43 110.46 66.74 123.01 72.43 110.46 72.43"/><polygon class="cls-28" points="110.46 66.74 118.82 61.05 123.01 72.43 110.46 66.74"/><path class="cls-29" d="M97.91,89.49l5.19,14.12q1.81,1.61,3.76,3.06l3.6-34.24Z"/><polygon class="cls-30" points="118.83 61.05 131.38 61.05 123.01 72.43 118.83 61.05"/><polygon class="cls-31" points="123.01 72.43 131.38 61.05 127.19 72.43 123.01 72.43"/><polygon class="cls-32" points="118.83 61.05 118.83 55.37 131.38 61.05 118.83 61.05"/><polygon class="cls-33" points="118.83 55.37 123.01 49.68 131.38 61.05 118.83 55.37"/><path class="cls-34" d="M123,32.62l-8.89-16.11q-1.87,1-3.66,2.08v2.66Z"/><path class="cls-35" d="M110.46,72.43l-3.6,34.24q.67.49,1.35,1L123,72.43Z"/><path class="cls-36" d="M135.56,15.56l-12.23-2.77a53.15,53.15,0,0,0-9.21,3.72L123,32.62Z"/><path class="cls-37" d="M135.56,10.65a53.25,53.25,0,0,0-12.23,2.14l12.23,2.77Z"/><polygon class="cls-38" points="123.01 32.62 135.56 38.31 123.01 49.68 123.01 32.62"/><polygon class="cls-39" points="127.19 72.43 131.38 61.05 139.74 72.43 127.19 72.43"/><polygon class="cls-40" points="123.01 32.62 135.56 15.56 135.56 38.31 123.01 32.62"/><polygon class="cls-41" points="123.01 49.68 135.56 38.31 131.38 61.05 123.01 49.68"/><path class="cls-42" d="M140.34,117.11q1.81-.06,3.58-.23v-4.64Z"/><path class="cls-43" d="M116.25,112.24a53.27,53.27,0,0,0,22,4.9c.69,0,1.37,0,2.06,0l3.58-4.87Z"/><path class="cls-44" d="M123,72.43l-14.8,35.21a53.23,53.23,0,0,0,8,4.6h27.68Z"/><polygon class="cls-45" points="123.01 72.43 127.19 72.43 143.93 112.24 123.01 72.43"/><path class="cls-46" d="M135.56,15.56l10-4.55a54.08,54.08,0,0,0-6.6-.45c-1.16,0-2.3,0-3.44.09Z"/><polygon class="cls-47" points="127.19 72.43 139.74 72.43 143.93 112.24 127.19 72.43"/><polygon class="cls-48" points="135.56 38.31 135.56 15.56 143.93 38.31 135.56 38.31"/><polygon class="cls-49" points="135.56 38.31 143.93 38.31 131.38 61.05 135.56 38.31"/><polygon class="cls-50" points="139.74 72.43 152.29 55.37 152.29 72.43 139.74 72.43"/><polygon class="cls-51" points="131.38 61.05 152.29 55.37 139.74 72.43 131.38 61.05"/><polygon class="cls-52" points="143.93 38.31 152.29 55.37 131.38 61.05 143.93 38.31"/><polygon class="cls-53" points="143.93 38.31 152.29 43.99 152.29 55.37 143.93 38.31"/><polygon class="cls-54" points="139.74 72.43 152.3 72.43 148.11 78.12 139.74 72.43"/><polygon class="cls-55" points="148.11 78.12 152.29 72.43 152.29 78.12 148.11 78.12"/><polygon class="cls-56" points="148.11 78.12 152.29 78.12 152.29 89.49 148.11 78.12"/><polygon class="cls-57" points="139.74 72.43 152.29 89.49 143.93 112.24 139.74 72.43"/><polygon class="cls-58" points="139.74 72.43 148.11 78.12 152.3 89.49 139.74 72.43"/><path class="cls-59" d="M143.93,116.88a53.19,53.19,0,0,0,5.58-.85l-5.58-3.79Z"/><path class="cls-60" d="M143.93,38.31l4-26.95q-1.14-.2-2.29-.35l-10,4.55Z"/><polygon class="cls-61" points="152.29 55.37 160.66 61.05 152.29 72.43 152.29 55.37"/><path class="cls-62" d="M143.93,112.24l5.58,3.79q1.41-.29,2.79-.65V89.49Z"/><polygon class="cls-63" points="152.29 78.12 164.85 72.43 164.85 89.49 152.29 78.12"/><polygon class="cls-64" points="152.29 72.43 164.85 72.43 152.29 78.12 152.29 72.43"/><polygon class="cls-65" points="152.29 72.43 160.66 61.05 164.85 72.43 152.29 72.43"/><polygon class="cls-66" points="160.66 61.05 164.85 66.74 164.85 72.43 160.66 61.05"/><polygon class="cls-67" points="152.29 89.49 152.29 78.12 164.85 89.49 152.29 89.49"/><path class="cls-68" d="M164.85,38.31,149.12,11.59l-.82-.16,4,32.56Z"/><polygon class="cls-69" points="152.29 55.37 152.29 43.99 160.66 61.05 152.29 55.37"/><path class="cls-70" d="M152.3,44l-4-32.56-.41-.07-4,26.95Z"/><polygon class="cls-71" points="160.66 61.05 169.03 55.37 164.85 66.74 160.66 61.05"/><polygon class="cls-72" points="164.85 38.31 169.03 55.37 160.66 61.05 164.85 38.31"/><path class="cls-73" d="M152.3,89.49v25.89l1.28-.36,11.27-25.53Z"/><polygon class="cls-74" points="152.29 43.99 164.85 38.31 160.66 61.05 152.29 43.99"/><path class="cls-75" d="M162.11,16a53,53,0,0,0-13-4.38l15.72,26.72Z"/><polygon class="cls-76" points="164.85 38.31 173.21 38.31 169.03 55.37 164.85 38.31"/><polygon class="cls-77" points="164.85 72.43 173.21 78.12 164.85 89.49 164.85 72.43"/><polygon class="cls-78" points="164.85 72.43 164.85 66.74 173.21 78.12 164.85 72.43"/><path class="cls-79" d="M153.58,115a53,53,0,0,0,5.48-1.92l5.79-23.62Z"/><path class="cls-80" d="M173.21,38.31l-7.5-20.4q-1.76-1-3.6-1.94l2.74,22.34Z"/><polygon class="cls-81" points="164.85 66.74 169.03 55.37 173.21 78.12 164.85 66.74"/><path class="cls-82" d="M159.06,113.11A53.43,53.43,0,0,0,173.74,104l-8.9-14.51Z"/><path class="cls-83" d="M164.85,89.49h20.61q.61-1.11,1.17-2.26l-13.42-9.12Z"/><path class="cls-84" d="M173.74,104a53.52,53.52,0,0,0,11.71-14.51H164.85Z"/><path class="cls-85" d="M180.55,30.83a53.64,53.64,0,0,0-14.84-12.92l7.5,20.4Z"/><path class="cls-86" d="M173.21,78.12l13.42,9.12c.29-.59.57-1.19.84-1.8L169,55.37Z"/><path class="cls-87" d="M184.53,36.6a53.16,53.16,0,0,0-4-5.77l-7.33,7.47Z"/><path class="cls-88" d="M188.12,83.9a53.3,53.3,0,0,0-3.59-47.3l-11.32,1.71Z"/><path class="cls-89" d="M169,55.37l18.43,30.07q.34-.76.66-1.54L173.21,38.31Z"/><path class="cls-90" d="M16.45,91.17l-.26,0a3.92,3.92,0,0,0-4.19,4h6.41Z"/><path class="cls-91" d="M12,95.18a3.8,3.8,0,0,0,1.9,3.27l3.23,2,1.28-5.23Z"/><path class="cls-92" d="M19.81,91.4l-3.35-.22,2,4Z"/><polygon class="cls-93" points="17.13 100.41 18.41 95.18 26.78 100.86 23.21 104.11 17.13 100.41"/><path class="cls-94" d="M26.78,100.87l-2.23-9.1q-2.47-.21-4.75-.37l-1.39,3.78Z"/><path class="cls-95" d="M26.78,92l-2.23-.2,2.23,9.1Z"/><path class="cls-96" d="M35.15,95.18l-1.87-2.54c-2.24-.25-4.41-.48-6.5-.67v8.9Z"/><polygon class="cls-97" points="26.78 100.87 35.15 95.18 39.33 106.55 26.78 100.87"/><path class="cls-98" d="M36.72,93l-3.43-.41,1.87,2.54Z"/><polygon class="cls-99" points="23.21 104.11 26.78 100.87 39.33 106.55 30.52 108.55 23.21 104.11"/><polygon class="cls-100" points="30.52 108.55 39.33 106.55 39.33 113.91 30.52 108.55"/><path class="cls-101" d="M39.33,106.55V93.38L36.72,93l-1.57,2.13Z"/><polygon class="cls-102" points="39.33 113.91 39.33 106.55 51.88 117.93 50.39 120.63 39.33 113.91"/><path class="cls-103" d="M46.06,94.36q-3.43-.54-6.73-1v13.17Z"/><path class="cls-104" d="M51.88,117.93V95.33q-2.95-.53-5.82-1l-6.73,12.19Z"/><polygon class="cls-105" points="50.39 120.63 51.88 117.93 52.76 122.07 50.39 120.63"/><polygon class="cls-106" points="52.76 122.07 51.88 117.93 68.62 117.93 66.05 130.15 52.76 122.07"/><path class="cls-107" d="M68.62,117.93l-10.5-21.4q-3.15-.64-6.24-1.19v22.59Z"/><path class="cls-108" d="M76.84,101.17c-6.22-1.86-12.53-3.39-18.71-4.65l10.5,21.4Z"/><polygon class="cls-109" points="66.05 130.15 68.62 117.93 73.56 134.72 66.05 130.15"/><path class="cls-110" d="M81.17,106.55l-3.85-5.24-.48-.15-8.22,16.76Z"/><polygon class="cls-111" points="73.56 134.72 68.62 117.93 85.36 117.93 79.37 138.25 73.56 134.72"/><polygon class="cls-112" points="68.62 117.93 81.17 106.55 85.36 117.93 68.62 117.93"/><path class="cls-113" d="M89.54,106.55l-.63-1.29c-2.54-1-5.13-1.89-7.74-2.74v4Z"/><polygon class="cls-114" points="81.17 106.55 89.54 106.55 89.54 112.24 81.17 106.55"/><polygon class="cls-115" points="81.17 106.55 89.54 112.24 85.35 117.93 81.17 106.55"/><path class="cls-94" d="M81.17,102.53q-1.92-.63-3.85-1.21l3.85,5.23Z"/><path class="cls-116" d="M90.13,105.74l-1.22-.48.63,1.29Z"/><polygon class="cls-117" points="85.36 117.93 89.54 112.24 97.91 117.93 85.36 117.93"/><polygon class="cls-118" points="79.37 138.25 85.36 117.93 102.09 123.61 83.3 140.64 79.37 138.25"/><polygon class="cls-119" points="85.36 117.93 97.91 117.93 102.09 123.61 85.36 117.93"/><polygon class="cls-120" points="89.54 112.24 89.54 106.55 97.91 117.93 89.54 112.24"/><path class="cls-121" d="M97.91,117.93,95.47,108q-2.63-1.17-5.33-2.24l-.59.81Z"/><path class="cls-122" d="M102.09,123.61l3.81-10.35-.61-.35-7.38,5Z"/><path class="cls-123" d="M105.29,112.91c-3.14-1.78-6.43-3.42-9.82-4.93l2.44,9.95Z"/><path class="cls-124" d="M92.71,146.36l3.06,1.86a3.94,3.94,0,0,1,1.52,1.7l.2.42,8.78-4Z"/><polygon class="cls-125" points="92.71 146.36 83.3 140.64 102.09 123.61 106.27 146.36 92.71 146.36"/><polygon class="cls-126" points="102.09 123.61 110.46 134.99 106.27 146.36 102.09 123.61"/><polygon class="cls-127" points="105.34 167.13 110.46 169.11 107.72 172.21 105.34 167.13"/><polygon class="cls-128" points="105.35 167.13 97.5 150.34 106.27 146.36 110.46 169.11 105.35 167.13"/><polygon class="cls-129" points="107.72 172.21 110.46 169.11 118.83 180.49 112.99 183.46 107.72 172.21"/><polygon class="cls-130" points="112.99 183.46 118.83 180.49 117.32 192.74 112.99 183.46"/><path class="cls-131" d="M110.46,135l-3.93-21.36-.63-.37-3.81,10.35Z"/><path class="cls-132" d="M118.83,135l-11.54-20.91-.76-.45L110.46,135Z"/><polygon class="cls-133" points="110.46 134.99 118.82 134.99 106.27 146.36 110.46 134.99"/><polygon class="cls-134" points="106.27 146.36 118.83 134.99 110.46 169.11 106.27 146.36"/><polygon class="cls-135" points="127.56 214.61 135.56 214.61 129.18 218.08 127.56 214.61"/><path class="cls-136" d="M129.18,218.08l4.11,8.79v0l2.26-12.28Z"/><path class="cls-137" d="M127.17,131.21a69.62,69.62,0,0,0-19.88-17.13L118.82,135Z"/><polygon class="cls-138" points="127.56 214.61 117.32 192.73 118.83 180.49 135.56 214.61 127.56 214.61"/><path class="cls-139" d="M133.3,226.89a3.91,3.91,0,0,0,4.15,2.2l5.57-7.57.67-1.39-8.13-5.53Z"/><polygon class="cls-140" points="110.46 169.11 118.82 134.99 118.82 180.49 110.46 169.11"/><polygon class="cls-141" points="118.83 180.49 148.11 203.24 135.56 214.61 118.83 180.49"/><polygon class="cls-142" points="118.83 180.49 148.11 180.49 148.11 203.24 118.83 180.49"/><polygon class="cls-143" points="135.56 214.61 148.11 203.24 144.25 219 143.69 220.14 135.56 214.61"/><path class="cls-144" d="M149.5,129.29c-1.13,1.31-2.2,2.66-3.2,4.07l6,1.63Z"/><path class="cls-145" d="M152.3,126.28q-1.46,1.46-2.79,3l2.79,5.7Z"/><polygon class="cls-146" points="148.11 180.49 152.29 186.17 148.11 203.24 148.11 180.49"/><path class="cls-147" d="M148.11,180.49,138.47,151a52.48,52.48,0,0,0-1.19,10.9,48.8,48.8,0,0,0-7.35-26.7l-11.11,45.29Z"/><path class="cls-148" d="M118.83,180.49l11.1-45.29q-1.28-2.06-2.76-4L118.83,135Z"/><path class="cls-149" d="M140.41,226.92l2.61-5.39-5.57,7.57a3.87,3.87,0,0,0,3-2.18"/><polygon class="cls-150" points="148.11 203.24 152.29 186.17 154.93 196.92 151.88 203.24 148.11 203.24"/><polygon class="cls-151" points="148.11 180.49 152.3 174.8 156.48 180.49 148.11 180.49"/><polygon class="cls-152" points="148.11 180.49 156.48 180.49 152.29 186.17 148.11 180.49"/><path class="cls-153" d="M156.48,123.61l-.53-.72q-1.9,1.63-3.65,3.39V135Z"/><path class="cls-154" d="M152.3,135l-6-1.63A48.2,48.2,0,0,0,139.52,147L152.3,174.8Z"/><path class="cls-155" d="M152.3,174.8,139.52,147q-.6,1.95-1,4l9.64,29.48Z"/><polygon class="cls-156" points="152.29 186.17 156.48 180.49 159.25 188.01 158.19 190.18 152.29 186.17"/><polygon class="cls-157" points="152.29 186.17 158.19 190.18 154.93 196.92 152.29 186.17"/><polygon class="cls-158" points="148.11 203.24 151.88 203.24 144.25 219 148.11 203.24"/><polygon class="cls-159" points="152.3 134.99 156.48 123.61 164.85 134.99 152.3 134.99"/><polygon class="cls-160" points="152.29 134.99 164.85 134.99 160.66 140.68 152.29 134.99"/><polygon class="cls-161" points="152.29 134.99 160.66 140.68 152.29 174.8 152.29 134.99"/><polygon class="cls-162" points="160.66 140.68 169.03 152.05 152.29 174.8 160.66 140.68"/><polygon class="cls-163" points="156.48 180.49 164.15 177.88 159.25 188.01 156.48 180.49"/><polygon class="cls-164" points="152.3 174.8 165.64 174.8 164.15 177.88 156.48 180.49 152.3 174.8"/><polygon class="cls-165" points="152.29 174.8 169.03 152.05 171.13 163.46 165.64 174.8 152.29 174.8"/><polygon class="cls-166" points="160.66 140.68 164.85 134.99 169.03 152.05 160.66 140.68"/><polygon class="cls-167" points="169.03 152.05 173.21 152.05 173.21 159.15 171.13 163.46 169.03 152.05"/><polygon class="cls-168" points="169.03 152.05 164.85 134.99 173.21 152.05 169.03 152.05"/><path class="cls-79" d="M156.84,122.14l-.89.76.53.72Z"/><polygon class="cls-169" points="164.85 134.99 185.77 140.68 173.21 152.05 164.85 134.99"/><polygon class="cls-170" points="164.85 134.99 185.77 123.61 185.77 140.68 164.85 134.99"/><polygon class="cls-171" points="156.48 123.61 185.77 123.61 164.85 134.99 156.48 123.61"/><path class="cls-82" d="M185.77,123.61l-8.54-13.93a91.09,91.09,0,0,0-20.39,12.45l-.36,1.48Z"/><path class="cls-84" d="M188,105.34c-3.68,1.31-7.29,2.76-10.78,4.35l8.54,13.93Z"/><path class="cls-172" d="M194.13,112.24l-1.55-8.46q-2.3.74-4.57,1.55l-2.24,18.28Z"/><polygon class="cls-173" points="185.77 123.61 194.13 134.99 185.77 140.68 185.77 123.61"/><polygon class="cls-174" points="194.13 112.24 202.5 117.93 194.13 134.99 194.13 112.24"/><polygon class="cls-175" points="185.77 123.61 194.13 112.24 194.13 134.99 185.77 123.61"/><path class="cls-176" d="M173.21,152v7.1l4.21-8.7a3.94,3.94,0,0,1,1.54-1.67l4.87-2.88,1.92-5.23Z"/><polygon class="cls-177" points="185.77 140.68 194.13 134.99 196.62 138.37 189.38 142.64 185.77 140.68"/><polygon class="cls-178" points="185.77 140.68 189.38 142.64 183.84 145.9 185.77 140.68"/><path class="cls-179" d="M215.05,112.24V98q-2.07.41-4.15.87l-8.4,19Z"/><path class="cls-180" d="M205.19,100.21c-4.23,1-8.46,2.23-12.61,3.57l1.56,8.46Z"/><path class="cls-181" d="M202.5,117.93l8.4-19q-2.85.62-5.72,1.33l-11.06,12Z"/><polygon class="cls-182" points="194.13 134.99 202.5 117.93 211.21 129.76 202.35 134.99 194.13 134.99"/><polygon class="cls-183" points="194.13 134.99 202.34 134.99 196.62 138.37 194.13 134.99"/><polygon class="cls-184" points="202.5 117.93 215.05 112.24 215.05 127.49 211.21 129.76 202.5 117.93"/><path class="cls-185" d="M227.6,100.87l-4.72-4.28c-2.58.43-5.2.91-7.83,1.43v14.22Z"/><polygon class="cls-186" points="215.05 112.24 219.66 124.77 215.05 127.49 215.05 112.24"/><polygon class="cls-187" points="215.05 112.24 231.46 117.81 219.66 124.77 215.05 112.24"/><polygon class="cls-188" points="215.05 112.24 231.79 112.24 231.79 117.62 231.46 117.81 215.05 112.24"/><polygon class="cls-189" points="215.05 112.24 227.6 100.87 231.79 112.24 215.05 112.24"/><path class="cls-190" d="M226.7,96l-3.82.61,4.72,4.28Z"/><path class="cls-191" d="M231.73,95.25q-2.48.33-5,.72l.9,4.89Z"/><path class="cls-192" d="M231.79,112.24,235,94.83l-3.26.42-4.13,5.62Z"/><path class="cls-193" d="M240.58,94.19l11.33,11.55.26-.15L245.62,93.7q-2.45.22-5,.49"/><path class="cls-194" d="M235,94.83l-3.2,17.41,16.92-4.6,3.21-1.89L240.58,94.19c-1.82.19-3.69.4-5.59.64"/><polygon class="cls-195" points="231.79 112.24 248.7 107.64 238.03 113.94 231.79 112.24"/><polygon class="cls-196" points="231.79 112.24 238.03 113.94 231.79 117.62 231.79 112.24"/><path class="cls-197" d="M253.8,93.08c-2.56.16-5.3.37-8.18.63l6.56,11.89,1.13-.67,3.59-9.75Z"/><path class="cls-198" d="M257.38,92.87l-3.58.21,3.09,2.1Z"/><path class="cls-199" d="M253.31,104.93l8.2-4.84a3.86,3.86,0,0,0,1.63-4.91h-6.24Z"/><path class="cls-200" d="M259.31,92.77l-1.93.1-.48,2.31h6.24a3.83,3.83,0,0,0-3.82-2.4"/></svg>